<svg xmlns="http://www.w3.org/2000/svg" viewBox="0 0 1200 900" role="img" aria-labelledby="title desc">
<title id="title">Duck Deep Wasseroberfläche</title>
<desc id="desc">Asymmetrisches Spielfeld mit Bewegungsnetz und exakt acht Tauchlöchern.</desc>
<defs>
  <linearGradient id="water" x1="0" y1="0" x2="1" y2="1">
    <stop offset="0%" stop-color="#29c7ee"/>
    <stop offset="48%" stop-color="#109fda"/>
    <stop offset="100%" stop-color="#087fb9"/>
  </linearGradient>
  <linearGradient id="rim" x1="0" y1="0" x2="0" y2="1">
    <stop offset="0%" stop-color="#0c5f8a"/>
    <stop offset="100%" stop-color="#073f64"/>
  </linearGradient>
  <radialGradient id="hole" cx="50%" cy="42%" r="60%">
    <stop offset="0%" stop-color="#061d34"/>
    <stop offset="65%" stop-color="#03111f"/>
    <stop offset="100%" stop-color="#000811"/>
  </radialGradient>
  <filter id="shadow" x="-20%" y="-20%" width="140%" height="140%">
    <feDropShadow dx="0" dy="10" stdDeviation="12" flood-color="#001622" flood-opacity=".35"/>
  </filter>
  <filter id="soft" x="-20%" y="-20%" width="140%" height="140%">
    <feGaussianBlur stdDeviation="4"/>
  </filter>
</defs>
<g id="board" filter="url(#shadow)">
  <rect x="20" y="20" width="1160" height="860" rx="54" fill="url(#rim)"/>
  <rect x="46" y="46" width="1108" height="808" rx="40" fill="url(#water)" stroke="#8de8ff" stroke-width="4"/>
</g>

<ellipse cx="210" cy="180" rx="80" ry="28" fill="none" stroke="#b6f5ff" stroke-width="4" opacity=".14"/>
<ellipse cx="218" cy="184" rx="52" ry="18" fill="none" stroke="#e9fcff" stroke-width="3" opacity=".12"/>
<ellipse cx="570" cy="160" rx="80" ry="28" fill="none" stroke="#b6f5ff" stroke-width="4" opacity=".14"/>
<ellipse cx="578" cy="164" rx="52" ry="18" fill="none" stroke="#e9fcff" stroke-width="3" opacity=".12"/>
<ellipse cx="900" cy="230" rx="80" ry="28" fill="none" stroke="#b6f5ff" stroke-width="4" opacity=".14"/>
<ellipse cx="908" cy="234" rx="52" ry="18" fill="none" stroke="#e9fcff" stroke-width="3" opacity=".12"/>
<ellipse cx="330" cy="510" rx="80" ry="28" fill="none" stroke="#b6f5ff" stroke-width="4" opacity=".14"/>
<ellipse cx="338" cy="514" rx="52" ry="18" fill="none" stroke="#e9fcff" stroke-width="3" opacity=".12"/>
<ellipse cx="760" cy="430" rx="80" ry="28" fill="none" stroke="#b6f5ff" stroke-width="4" opacity=".14"/>
<ellipse cx="768" cy="434" rx="52" ry="18" fill="none" stroke="#e9fcff" stroke-width="3" opacity=".12"/>
<ellipse cx="980" cy="700" rx="80" ry="28" fill="none" stroke="#b6f5ff" stroke-width="4" opacity=".14"/>
<ellipse cx="988" cy="704" rx="52" ry="18" fill="none" stroke="#e9fcff" stroke-width="3" opacity=".12"/>
<ellipse cx="540" cy="690" rx="80" ry="28" fill="none" stroke="#b6f5ff" stroke-width="4" opacity=".14"/>
<ellipse cx="548" cy="694" rx="52" ry="18" fill="none" stroke="#e9fcff" stroke-width="3" opacity=".12"/>
<ellipse cx="150" cy="740" rx="80" ry="28" fill="none" stroke="#b6f5ff" stroke-width="4" opacity=".14"/>
<ellipse cx="158" cy="744" rx="52" ry="18" fill="none" stroke="#e9fcff" stroke-width="3" opacity=".12"/>
<g transform="translate(92 105) rotate(-18)">
      <circle r="52" fill="#67a92f" stroke="#3b7b25" stroke-width="4"/>
      <path d="M0 0 L52 -8 A52 52 0 0 1 37.44 35.36 Z" fill="url(#water)"/>
      <path d="M0 0 L-28.6 -37.44" stroke="#86c94d" stroke-width="3" opacity=".7"/>
    </g>
<g transform="translate(1080 115) rotate(12)">
      <circle r="58" fill="#67a92f" stroke="#3b7b25" stroke-width="4"/>
      <path d="M0 0 L58 -8 A58 58 0 0 1 41.76 39.440000000000005 Z" fill="url(#water)"/>
      <path d="M0 0 L-31.900000000000002 -41.76" stroke="#86c94d" stroke-width="3" opacity=".7"/>
    </g>
<g transform="translate(110 800) rotate(-12)">
      <circle r="62" fill="#67a92f" stroke="#3b7b25" stroke-width="4"/>
      <path d="M0 0 L62 -8 A62 62 0 0 1 44.64 42.160000000000004 Z" fill="url(#water)"/>
      <path d="M0 0 L-34.1 -44.64" stroke="#86c94d" stroke-width="3" opacity=".7"/>
    </g>
<g transform="translate(1030 810) rotate(18)">
      <circle r="54" fill="#67a92f" stroke="#3b7b25" stroke-width="4"/>
      <path d="M0 0 L54 -8 A54 54 0 0 1 38.879999999999995 36.720000000000006 Z" fill="url(#water)"/>
      <path d="M0 0 L-29.700000000000003 -38.879999999999995" stroke="#86c94d" stroke-width="3" opacity=".7"/>
    </g>
<g transform="translate(565 420) rotate(8)">
      <circle r="45" fill="#67a92f" stroke="#3b7b25" stroke-width="4"/>
      <path d="M0 0 L45 -8 A45 45 0 0 1 32.4 30.6 Z" fill="url(#water)"/>
      <path d="M0 0 L-24.750000000000004 -32.4" stroke="#86c94d" stroke-width="3" opacity=".7"/>
    </g>
<g transform="translate(955 330) rotate(-16)">
      <circle r="34" fill="#67a92f" stroke="#3b7b25" stroke-width="4"/>
      <path d="M0 0 L34 -8 A34 34 0 0 1 24.48 23.12 Z" fill="url(#water)"/>
      <path d="M0 0 L-18.700000000000003 -24.48" stroke="#86c94d" stroke-width="3" opacity=".7"/>
    </g>
<g transform="translate(300 800) rotate(22)">
      <circle r="30" fill="#67a92f" stroke="#3b7b25" stroke-width="4"/>
      <path d="M0 0 L30 -8 A30 30 0 0 1 21.599999999999998 20.400000000000002 Z" fill="url(#water)"/>
      <path d="M0 0 L-16.5 -21.599999999999998" stroke="#86c94d" stroke-width="3" opacity=".7"/>
    </g>
<g transform="translate(220 95)">
      <g fill="#f7f3ff" stroke="#ffffff" stroke-width="2" opacity=".98">
        <ellipse rx="16" ry="34" transform="rotate(0) translate(0 -18)"/>
        <ellipse rx="16" ry="34" transform="rotate(60) translate(0 -18)"/>
        <ellipse rx="16" ry="34" transform="rotate(120) translate(0 -18)"/>
      </g>
      <circle r="12" fill="#f1c94c"/>
    </g>
<g transform="translate(850 105)">
      <g fill="#ff8fbd" stroke="#ffffff" stroke-width="2" opacity=".98">
        <ellipse rx="16" ry="34" transform="rotate(0) translate(0 -18)"/>
        <ellipse rx="16" ry="34" transform="rotate(60) translate(0 -18)"/>
        <ellipse rx="16" ry="34" transform="rotate(120) translate(0 -18)"/>
      </g>
      <circle r="12" fill="#ffd34e"/>
    </g>
<g transform="translate(1035 410)">
      <g fill="#fff7f3" stroke="#ffffff" stroke-width="2" opacity=".98">
        <ellipse rx="16" ry="34" transform="rotate(0) translate(0 -18)"/>
        <ellipse rx="16" ry="34" transform="rotate(60) translate(0 -18)"/>
        <ellipse rx="16" ry="34" transform="rotate(120) translate(0 -18)"/>
      </g>
      <circle r="12" fill="#f2c84b"/>
    </g>
<g transform="translate(255 655)">
      <g fill="#ff95c4" stroke="#ffffff" stroke-width="2" opacity=".98">
        <ellipse rx="16" ry="34" transform="rotate(0) translate(0 -18)"/>
        <ellipse rx="16" ry="34" transform="rotate(60) translate(0 -18)"/>
        <ellipse rx="16" ry="34" transform="rotate(120) translate(0 -18)"/>
      </g>
      <circle r="12" fill="#f6c84a"/>
    </g>
<g fill="#8fd238" opacity=".9">
      <circle cx="150" cy="205" r="8"/><circle cx="164" cy="209" r="6"/>
      <circle cx="140" cy="214" r="5"/><circle cx="157" cy="220" r="5"/>
    </g>
<g fill="#8fd238" opacity=".9">
      <circle cx="375" cy="110" r="8"/><circle cx="389" cy="114" r="6"/>
      <circle cx="365" cy="119" r="5"/><circle cx="382" cy="125" r="5"/>
    </g>
<g fill="#8fd238" opacity=".9">
      <circle cx="690" cy="140" r="8"/><circle cx="704" cy="144" r="6"/>
      <circle cx="680" cy="149" r="5"/><circle cx="697" cy="155" r="5"/>
    </g>
<g fill="#8fd238" opacity=".9">
      <circle cx="1015" cy="205" r="8"/><circle cx="1029" cy="209" r="6"/>
      <circle cx="1005" cy="214" r="5"/><circle cx="1022" cy="220" r="5"/>
    </g>
<g fill="#8fd238" opacity=".9">
      <circle cx="185" cy="555" r="8"/><circle cx="199" cy="559" r="6"/>
      <circle cx="175" cy="564" r="5"/><circle cx="192" cy="570" r="5"/>
    </g>
<g fill="#8fd238" opacity=".9">
      <circle cx="370" cy="430" r="8"/><circle cx="384" cy="434" r="6"/>
      <circle cx="360" cy="439" r="5"/><circle cx="377" cy="445" r="5"/>
    </g>
<g fill="#8fd238" opacity=".9">
      <circle cx="700" cy="545" r="8"/><circle cx="714" cy="549" r="6"/>
      <circle cx="690" cy="554" r="5"/><circle cx="707" cy="560" r="5"/>
    </g>
<g fill="#8fd238" opacity=".9">
      <circle cx="930" cy="645" r="8"/><circle cx="944" cy="649" r="6"/>
      <circle cx="920" cy="654" r="5"/><circle cx="937" cy="660" r="5"/>
    </g>
<g fill="#8fd238" opacity=".9">
      <circle cx="540" cy="775" r="8"/><circle cx="554" cy="779" r="6"/>
      <circle cx="530" cy="784" r="5"/><circle cx="547" cy="790" r="5"/>
    </g>
<g id="movement-graph" stroke="#d8f8ff" stroke-width="5" stroke-linecap="round" opacity=".82">
<line x1="170" y1="145" x2="120" y2="255" data-from="n0_0" data-to="n1_0"/>
<line x1="170" y1="145" x2="260" y2="235" data-from="n0_0" data-to="n1_1"/>
<line x1="315" y1="120" x2="405" y2="270" data-from="n0_1" data-to="n1_2"/>
<line x1="470" y1="150" x2="625" y2="115" data-from="n0_2" data-to="n0_3"/>
<line x1="625" y1="115" x2="720" y2="260" data-from="n0_3" data-to="n1_4"/>
<line x1="790" y1="155" x2="720" y2="260" data-from="n0_4" data-to="n1_4"/>
<line x1="950" y1="125" x2="875" y2="225" data-from="n0_5" data-to="n1_5"/>
<line x1="950" y1="125" x2="1030" y2="270" data-from="n0_5" data-to="n1_6"/>
<line x1="120" y1="255" x2="260" y2="235" data-from="n1_0" data-to="n1_1"/>
<line x1="260" y1="235" x2="405" y2="270" data-from="n1_1" data-to="n1_2"/>
<line x1="260" y1="235" x2="335" y2="350" data-from="n1_1" data-to="n2_1"/>
<line x1="405" y1="270" x2="335" y2="350" data-from="n1_2" data-to="n2_1"/>
<line x1="405" y1="270" x2="490" y2="390" data-from="n1_2" data-to="n2_2"/>
<line x1="560" y1="230" x2="650" y2="340" data-from="n1_3" data-to="n2_3"/>
<line x1="720" y1="260" x2="875" y2="225" data-from="n1_4" data-to="n1_5"/>
<line x1="720" y1="260" x2="650" y2="340" data-from="n1_4" data-to="n2_3"/>
<line x1="875" y1="225" x2="1030" y2="270" data-from="n1_5" data-to="n1_6"/>
<line x1="875" y1="225" x2="965" y2="355" data-from="n1_5" data-to="n2_5"/>
<line x1="1030" y1="270" x2="965" y2="355" data-from="n1_6" data-to="n2_5"/>
<line x1="175" y1="370" x2="115" y2="495" data-from="n2_0" data-to="n3_0"/>
<line x1="335" y1="350" x2="490" y2="390" data-from="n2_1" data-to="n2_2"/>
<line x1="335" y1="350" x2="275" y2="470" data-from="n2_1" data-to="n3_1"/>
<line x1="490" y1="390" x2="590" y2="465" data-from="n2_2" data-to="n3_3"/>
<line x1="650" y1="340" x2="805" y2="380" data-from="n2_3" data-to="n2_4"/>
<line x1="650" y1="340" x2="590" y2="465" data-from="n2_3" data-to="n3_3"/>
<line x1="805" y1="380" x2="965" y2="355" data-from="n2_4" data-to="n2_5"/>
<line x1="805" y1="380" x2="900" y2="460" data-from="n2_4" data-to="n3_5"/>
<line x1="965" y1="355" x2="900" y2="460" data-from="n2_5" data-to="n3_5"/>
<line x1="965" y1="355" x2="1050" y2="500" data-from="n2_5" data-to="n3_6"/>
<line x1="115" y1="495" x2="275" y2="470" data-from="n3_0" data-to="n3_1"/>
<line x1="275" y1="470" x2="330" y2="590" data-from="n3_1" data-to="n4_1"/>
<line x1="430" y1="515" x2="500" y2="635" data-from="n3_2" data-to="n4_2"/>
<line x1="590" y1="465" x2="750" y2="505" data-from="n3_3" data-to="n3_4"/>
<line x1="590" y1="465" x2="655" y2="585" data-from="n3_3" data-to="n4_3"/>
<line x1="900" y1="460" x2="1050" y2="500" data-from="n3_5" data-to="n3_6"/>
<line x1="1050" y1="500" x2="980" y2="590" data-from="n3_6" data-to="n4_5"/>
<line x1="175" y1="615" x2="330" y2="590" data-from="n4_0" data-to="n4_1"/>
<line x1="175" y1="615" x2="120" y2="735" data-from="n4_0" data-to="n5_0"/>
<line x1="175" y1="615" x2="285" y2="710" data-from="n4_0" data-to="n5_1"/>
<line x1="330" y1="590" x2="285" y2="710" data-from="n4_1" data-to="n5_1"/>
<line x1="500" y1="635" x2="655" y2="585" data-from="n4_2" data-to="n4_3"/>
<line x1="500" y1="635" x2="610" y2="700" data-from="n4_2" data-to="n5_3"/>
<line x1="655" y1="585" x2="610" y2="700" data-from="n4_3" data-to="n5_3"/>
<line x1="820" y1="625" x2="775" y2="745" data-from="n4_4" data-to="n5_4"/>
<line x1="980" y1="590" x2="1040" y2="750" data-from="n4_5" data-to="n5_6"/>
<line x1="120" y1="735" x2="285" y2="710" data-from="n5_0" data-to="n5_1"/>
<line x1="285" y1="710" x2="445" y2="750" data-from="n5_1" data-to="n5_2"/>
<line x1="445" y1="750" x2="610" y2="700" data-from="n5_2" data-to="n5_3"/>
<line x1="610" y1="700" x2="775" y2="745" data-from="n5_3" data-to="n5_4"/>
<line x1="930" y1="705" x2="1040" y2="750" data-from="n5_5" data-to="n5_6"/>
</g>
<g id="movement-nodes">
<g id="n0_0" class="move-node" data-node-id="n0_0">
      <circle cx="170" cy="145" r="17" fill="#9beaff" stroke="#e9fcff" stroke-width="4"/>
      <circle cx="166" cy="140" r="5" fill="#ffffff" opacity=".65"/>
    </g>
<g id="n0_2" class="move-node" data-node-id="n0_2">
      <circle cx="470" cy="150" r="17" fill="#9beaff" stroke="#e9fcff" stroke-width="4"/>
      <circle cx="466" cy="145" r="5" fill="#ffffff" opacity=".65"/>
    </g>
<g id="n0_3" class="move-node" data-node-id="n0_3">
      <circle cx="625" cy="115" r="17" fill="#9beaff" stroke="#e9fcff" stroke-width="4"/>
      <circle cx="621" cy="110" r="5" fill="#ffffff" opacity=".65"/>
    </g>
<g id="n0_5" class="move-node" data-node-id="n0_5">
      <circle cx="950" cy="125" r="17" fill="#9beaff" stroke="#e9fcff" stroke-width="4"/>
      <circle cx="946" cy="120" r="5" fill="#ffffff" opacity=".65"/>
    </g>
<g id="n1_0" class="move-node" data-node-id="n1_0">
      <circle cx="120" cy="255" r="17" fill="#9beaff" stroke="#e9fcff" stroke-width="4"/>
      <circle cx="116" cy="250" r="5" fill="#ffffff" opacity=".65"/>
    </g>
<g id="n1_1" class="move-node" data-node-id="n1_1">
      <circle cx="260" cy="235" r="17" fill="#9beaff" stroke="#e9fcff" stroke-width="4"/>
      <circle cx="256" cy="230" r="5" fill="#ffffff" opacity=".65"/>
    </g>
<g id="n1_2" class="move-node" data-node-id="n1_2">
      <circle cx="405" cy="270" r="17" fill="#9beaff" stroke="#e9fcff" stroke-width="4"/>
      <circle cx="401" cy="265" r="5" fill="#ffffff" opacity=".65"/>
    </g>
<g id="n1_4" class="move-node" data-node-id="n1_4">
      <circle cx="720" cy="260" r="17" fill="#9beaff" stroke="#e9fcff" stroke-width="4"/>
      <circle cx="716" cy="255" r="5" fill="#ffffff" opacity=".65"/>
    </g>
<g id="n1_5" class="move-node" data-node-id="n1_5">
      <circle cx="875" cy="225" r="17" fill="#9beaff" stroke="#e9fcff" stroke-width="4"/>
      <circle cx="871" cy="220" r="5" fill="#ffffff" opacity=".65"/>
    </g>
<g id="n1_6" class="move-node" data-node-id="n1_6">
      <circle cx="1030" cy="270" r="17" fill="#9beaff" stroke="#e9fcff" stroke-width="4"/>
      <circle cx="1026" cy="265" r="5" fill="#ffffff" opacity=".65"/>
    </g>
<g id="n2_1" class="move-node" data-node-id="n2_1">
      <circle cx="335" cy="350" r="17" fill="#9beaff" stroke="#e9fcff" stroke-width="4"/>
      <circle cx="331" cy="345" r="5" fill="#ffffff" opacity=".65"/>
    </g>
<g id="n2_2" class="move-node" data-node-id="n2_2">
      <circle cx="490" cy="390" r="17" fill="#9beaff" stroke="#e9fcff" stroke-width="4"/>
      <circle cx="486" cy="385" r="5" fill="#ffffff" opacity=".65"/>
    </g>
<g id="n2_3" class="move-node" data-node-id="n2_3">
      <circle cx="650" cy="340" r="17" fill="#9beaff" stroke="#e9fcff" stroke-width="4"/>
      <circle cx="646" cy="335" r="5" fill="#ffffff" opacity=".65"/>
    </g>
<g id="n2_4" class="move-node" data-node-id="n2_4">
      <circle cx="805" cy="380" r="17" fill="#9beaff" stroke="#e9fcff" stroke-width="4"/>
      <circle cx="801" cy="375" r="5" fill="#ffffff" opacity=".65"/>
    </g>
<g id="n2_5" class="move-node" data-node-id="n2_5">
      <circle cx="965" cy="355" r="17" fill="#9beaff" stroke="#e9fcff" stroke-width="4"/>
      <circle cx="961" cy="350" r="5" fill="#ffffff" opacity=".65"/>
    </g>
<g id="n3_0" class="move-node" data-node-id="n3_0">
      <circle cx="115" cy="495" r="17" fill="#9beaff" stroke="#e9fcff" stroke-width="4"/>
      <circle cx="111" cy="490" r="5" fill="#ffffff" opacity=".65"/>
    </g>
<g id="n3_1" class="move-node" data-node-id="n3_1">
      <circle cx="275" cy="470" r="17" fill="#9beaff" stroke="#e9fcff" stroke-width="4"/>
      <circle cx="271" cy="465" r="5" fill="#ffffff" opacity=".65"/>
    </g>
<g id="n3_3" class="move-node" data-node-id="n3_3">
      <circle cx="590" cy="465" r="17" fill="#9beaff" stroke="#e9fcff" stroke-width="4"/>
      <circle cx="586" cy="460" r="5" fill="#ffffff" opacity=".65"/>
    </g>
<g id="n3_5" class="move-node" data-node-id="n3_5">
      <circle cx="900" cy="460" r="17" fill="#9beaff" stroke="#e9fcff" stroke-width="4"/>
      <circle cx="896" cy="455" r="5" fill="#ffffff" opacity=".65"/>
    </g>
<g id="n3_6" class="move-node" data-node-id="n3_6">
      <circle cx="1050" cy="500" r="17" fill="#9beaff" stroke="#e9fcff" stroke-width="4"/>
      <circle cx="1046" cy="495" r="5" fill="#ffffff" opacity=".65"/>
    </g>
<g id="n4_0" class="move-node" data-node-id="n4_0">
      <circle cx="175" cy="615" r="17" fill="#9beaff" stroke="#e9fcff" stroke-width="4"/>
      <circle cx="171" cy="610" r="5" fill="#ffffff" opacity=".65"/>
    </g>
<g id="n4_1" class="move-node" data-node-id="n4_1">
      <circle cx="330" cy="590" r="17" fill="#9beaff" stroke="#e9fcff" stroke-width="4"/>
      <circle cx="326" cy="585" r="5" fill="#ffffff" opacity=".65"/>
    </g>
<g id="n4_2" class="move-node" data-node-id="n4_2">
      <circle cx="500" cy="635" r="17" fill="#9beaff" stroke="#e9fcff" stroke-width="4"/>
      <circle cx="496" cy="630" r="5" fill="#ffffff" opacity=".65"/>
    </g>
<g id="n4_3" class="move-node" data-node-id="n4_3">
      <circle cx="655" cy="585" r="17" fill="#9beaff" stroke="#e9fcff" stroke-width="4"/>
      <circle cx="651" cy="580" r="5" fill="#ffffff" opacity=".65"/>
    </g>
<g id="n4_5" class="move-node" data-node-id="n4_5">
      <circle cx="980" cy="590" r="17" fill="#9beaff" stroke="#e9fcff" stroke-width="4"/>
      <circle cx="976" cy="585" r="5" fill="#ffffff" opacity=".65"/>
    </g>
<g id="n5_0" class="move-node" data-node-id="n5_0">
      <circle cx="120" cy="735" r="17" fill="#9beaff" stroke="#e9fcff" stroke-width="4"/>
      <circle cx="116" cy="730" r="5" fill="#ffffff" opacity=".65"/>
    </g>
<g id="n5_1" class="move-node" data-node-id="n5_1">
      <circle cx="285" cy="710" r="17" fill="#9beaff" stroke="#e9fcff" stroke-width="4"/>
      <circle cx="281" cy="705" r="5" fill="#ffffff" opacity=".65"/>
    </g>
<g id="n5_2" class="move-node" data-node-id="n5_2">
      <circle cx="445" cy="750" r="17" fill="#9beaff" stroke="#e9fcff" stroke-width="4"/>
      <circle cx="441" cy="745" r="5" fill="#ffffff" opacity=".65"/>
    </g>
<g id="n5_3" class="move-node" data-node-id="n5_3">
      <circle cx="610" cy="700" r="17" fill="#9beaff" stroke="#e9fcff" stroke-width="4"/>
      <circle cx="606" cy="695" r="5" fill="#ffffff" opacity=".65"/>
    </g>
<g id="n5_4" class="move-node" data-node-id="n5_4">
      <circle cx="775" cy="745" r="17" fill="#9beaff" stroke="#e9fcff" stroke-width="4"/>
      <circle cx="771" cy="740" r="5" fill="#ffffff" opacity=".65"/>
    </g>
<g id="n5_6" class="move-node" data-node-id="n5_6">
      <circle cx="1040" cy="750" r="17" fill="#9beaff" stroke="#e9fcff" stroke-width="4"/>
      <circle cx="1036" cy="745" r="5" fill="#ffffff" opacity=".65"/>
    </g>
</g>
<g id="holes">
<g id="n0_1" class="hole-node" data-node-id="n0_1" data-hole="true">
      <circle cx="315" cy="120" r="56" fill="#c5f5ff" opacity=".95"/>
      <circle cx="315" cy="120" r="49" fill="#5bc7e4" stroke="#e9fcff" stroke-width="5"/>
      <circle cx="315" cy="120" r="39" fill="url(#hole)"/>
      <ellipse cx="307" cy="109" rx="18" ry="8" fill="#ffffff" opacity=".10"/>
    </g>
<g id="n0_4" class="hole-node" data-node-id="n0_4" data-hole="true">
      <circle cx="790" cy="155" r="56" fill="#c5f5ff" opacity=".95"/>
      <circle cx="790" cy="155" r="49" fill="#5bc7e4" stroke="#e9fcff" stroke-width="5"/>
      <circle cx="790" cy="155" r="39" fill="url(#hole)"/>
      <ellipse cx="782" cy="144" rx="18" ry="8" fill="#ffffff" opacity=".10"/>
    </g>
<g id="n1_3" class="hole-node" data-node-id="n1_3" data-hole="true">
      <circle cx="560" cy="230" r="56" fill="#c5f5ff" opacity=".95"/>
      <circle cx="560" cy="230" r="49" fill="#5bc7e4" stroke="#e9fcff" stroke-width="5"/>
      <circle cx="560" cy="230" r="39" fill="url(#hole)"/>
      <ellipse cx="552" cy="219" rx="18" ry="8" fill="#ffffff" opacity=".10"/>
    </g>
<g id="n2_0" class="hole-node" data-node-id="n2_0" data-hole="true">
      <circle cx="175" cy="370" r="56" fill="#c5f5ff" opacity=".95"/>
      <circle cx="175" cy="370" r="49" fill="#5bc7e4" stroke="#e9fcff" stroke-width="5"/>
      <circle cx="175" cy="370" r="39" fill="url(#hole)"/>
      <ellipse cx="167" cy="359" rx="18" ry="8" fill="#ffffff" opacity=".10"/>
    </g>
<g id="n3_2" class="hole-node" data-node-id="n3_2" data-hole="true">
      <circle cx="430" cy="515" r="56" fill="#c5f5ff" opacity=".95"/>
      <circle cx="430" cy="515" r="49" fill="#5bc7e4" stroke="#e9fcff" stroke-width="5"/>
      <circle cx="430" cy="515" r="39" fill="url(#hole)"/>
      <ellipse cx="422" cy="504" rx="18" ry="8" fill="#ffffff" opacity=".10"/>
    </g>
<g id="n3_4" class="hole-node" data-node-id="n3_4" data-hole="true">
      <circle cx="750" cy="505" r="56" fill="#c5f5ff" opacity=".95"/>
      <circle cx="750" cy="505" r="49" fill="#5bc7e4" stroke="#e9fcff" stroke-width="5"/>
      <circle cx="750" cy="505" r="39" fill="url(#hole)"/>
      <ellipse cx="742" cy="494" rx="18" ry="8" fill="#ffffff" opacity=".10"/>
    </g>
<g id="n4_4" class="hole-node" data-node-id="n4_4" data-hole="true">
      <circle cx="820" cy="625" r="56" fill="#c5f5ff" opacity=".95"/>
      <circle cx="820" cy="625" r="49" fill="#5bc7e4" stroke="#e9fcff" stroke-width="5"/>
      <circle cx="820" cy="625" r="39" fill="url(#hole)"/>
      <ellipse cx="812" cy="614" rx="18" ry="8" fill="#ffffff" opacity=".10"/>
    </g>
<g id="n5_5" class="hole-node" data-node-id="n5_5" data-hole="true">
      <circle cx="930" cy="705" r="56" fill="#c5f5ff" opacity=".95"/>
      <circle cx="930" cy="705" r="49" fill="#5bc7e4" stroke="#e9fcff" stroke-width="5"/>
      <circle cx="930" cy="705" r="39" fill="url(#hole)"/>
      <ellipse cx="922" cy="694" rx="18" ry="8" fill="#ffffff" opacity=".10"/>
    </g>
</g>
<rect x="48" y="48" width="1104" height="804" rx="38" fill="none" stroke="#d7fbff" stroke-width="3" opacity=".45"/>
</svg>
