<svg xmlns="http://www.w3.org/2000/svg" viewBox="0 0 1200 900" role="img" aria-labelledby="title desc">
<title id="title">Duck Deep Schilf-Zone</title>
<desc id="desc">Schilf-Zone mit identischem Bewegungsnetz wie die Wasseroberfläche und fünf Tauchlöchern auf neuen Positionen.</desc>
<defs>
  <linearGradient id="marshWater" x1="0" y1="0" x2="1" y2="1">
    <stop offset="0%" stop-color="#8fc35c"/>
    <stop offset="48%" stop-color="#679c46"/>
    <stop offset="100%" stop-color="#507c35"/>
  </linearGradient>
  <linearGradient id="rim" x1="0" y1="0" x2="0" y2="1">
    <stop offset="0%" stop-color="#4e6f2e"/>
    <stop offset="100%" stop-color="#32471d"/>
  </linearGradient>
  <radialGradient id="hole" cx="50%" cy="42%" r="60%">
    <stop offset="0%" stop-color="#132411"/>
    <stop offset="70%" stop-color="#0b1709"/>
    <stop offset="100%" stop-color="#040a03"/>
  </radialGradient>
  <filter id="shadow" x="-20%" y="-20%" width="140%" height="140%">
    <feDropShadow dx="0" dy="10" stdDeviation="12" flood-color="#13220f" flood-opacity=".28"/>
  </filter>
</defs>
<g id="board" filter="url(#shadow)">
  <rect x="20" y="20" width="1160" height="860" rx="54" fill="url(#rim)"/>
  <rect x="46" y="46" width="1108" height="808" rx="40" fill="url(#marshWater)" stroke="#d7f2bf" stroke-width="4"/>
</g>

<ellipse cx="210" cy="180" rx="82" ry="30" fill="none" stroke="#d8f1bc" stroke-width="4" opacity=".10"/>
<ellipse cx="220" cy="184" rx="54" ry="18" fill="none" stroke="#f0ffe1" stroke-width="3" opacity=".10"/>
<ellipse cx="570" cy="160" rx="82" ry="30" fill="none" stroke="#d8f1bc" stroke-width="4" opacity=".10"/>
<ellipse cx="580" cy="164" rx="54" ry="18" fill="none" stroke="#f0ffe1" stroke-width="3" opacity=".10"/>
<ellipse cx="900" cy="230" rx="82" ry="30" fill="none" stroke="#d8f1bc" stroke-width="4" opacity=".10"/>
<ellipse cx="910" cy="234" rx="54" ry="18" fill="none" stroke="#f0ffe1" stroke-width="3" opacity=".10"/>
<ellipse cx="330" cy="510" rx="82" ry="30" fill="none" stroke="#d8f1bc" stroke-width="4" opacity=".10"/>
<ellipse cx="340" cy="514" rx="54" ry="18" fill="none" stroke="#f0ffe1" stroke-width="3" opacity=".10"/>
<ellipse cx="760" cy="430" rx="82" ry="30" fill="none" stroke="#d8f1bc" stroke-width="4" opacity=".10"/>
<ellipse cx="770" cy="434" rx="54" ry="18" fill="none" stroke="#f0ffe1" stroke-width="3" opacity=".10"/>
<ellipse cx="980" cy="700" rx="82" ry="30" fill="none" stroke="#d8f1bc" stroke-width="4" opacity=".10"/>
<ellipse cx="990" cy="704" rx="54" ry="18" fill="none" stroke="#f0ffe1" stroke-width="3" opacity=".10"/>
<ellipse cx="540" cy="690" rx="82" ry="30" fill="none" stroke="#d8f1bc" stroke-width="4" opacity=".10"/>
<ellipse cx="550" cy="694" rx="54" ry="18" fill="none" stroke="#f0ffe1" stroke-width="3" opacity=".10"/>
<ellipse cx="150" cy="740" rx="82" ry="30" fill="none" stroke="#d8f1bc" stroke-width="4" opacity=".10"/>
<ellipse cx="160" cy="744" rx="54" ry="18" fill="none" stroke="#f0ffe1" stroke-width="3" opacity=".10"/>
<g transform="translate(210 95) scale(1.0)">
      <path d="M0 0 C-8 -42 -6 -72 0 -108" stroke="#2d5c1c" stroke-width="6" fill="none"/>
      <path d="M15 0 C10 -40 10 -78 16 -118" stroke="#316821" stroke-width="6" fill="none"/>
      <path d="M-15 0 C-22 -36 -18 -70 -12 -112" stroke="#377025" stroke-width="6" fill="none"/>
      <path d="M8 0 C3 -28 0 -50 -3 -74" stroke="#89c55a" stroke-width="3" fill="none"/>
      <path d="M-10 0 C-2 -24 0 -46 6 -72" stroke="#9dd16c" stroke-width="3" fill="none"/>
    </g>
<g transform="translate(1000 105) scale(1.1)">
      <path d="M0 0 C-8 -42 -6 -72 0 -108" stroke="#2d5c1c" stroke-width="6" fill="none"/>
      <path d="M15 0 C10 -40 10 -78 16 -118" stroke="#316821" stroke-width="6" fill="none"/>
      <path d="M-15 0 C-22 -36 -18 -70 -12 -112" stroke="#377025" stroke-width="6" fill="none"/>
      <path d="M8 0 C3 -28 0 -50 -3 -74" stroke="#89c55a" stroke-width="3" fill="none"/>
      <path d="M-10 0 C-2 -24 0 -46 6 -72" stroke="#9dd16c" stroke-width="3" fill="none"/>
    </g>
<g transform="translate(185 790) scale(1.1)">
      <path d="M0 0 C-8 -42 -6 -72 0 -108" stroke="#2d5c1c" stroke-width="6" fill="none"/>
      <path d="M15 0 C10 -40 10 -78 16 -118" stroke="#316821" stroke-width="6" fill="none"/>
      <path d="M-15 0 C-22 -36 -18 -70 -12 -112" stroke="#377025" stroke-width="6" fill="none"/>
      <path d="M8 0 C3 -28 0 -50 -3 -74" stroke="#89c55a" stroke-width="3" fill="none"/>
      <path d="M-10 0 C-2 -24 0 -46 6 -72" stroke="#9dd16c" stroke-width="3" fill="none"/>
    </g>
<g transform="translate(980 785) scale(1.0)">
      <path d="M0 0 C-8 -42 -6 -72 0 -108" stroke="#2d5c1c" stroke-width="6" fill="none"/>
      <path d="M15 0 C10 -40 10 -78 16 -118" stroke="#316821" stroke-width="6" fill="none"/>
      <path d="M-15 0 C-22 -36 -18 -70 -12 -112" stroke="#377025" stroke-width="6" fill="none"/>
      <path d="M8 0 C3 -28 0 -50 -3 -74" stroke="#89c55a" stroke-width="3" fill="none"/>
      <path d="M-10 0 C-2 -24 0 -46 6 -72" stroke="#9dd16c" stroke-width="3" fill="none"/>
    </g>
<g transform="translate(560 95) scale(0.85)">
      <path d="M0 0 C-8 -42 -6 -72 0 -108" stroke="#2d5c1c" stroke-width="6" fill="none"/>
      <path d="M15 0 C10 -40 10 -78 16 -118" stroke="#316821" stroke-width="6" fill="none"/>
      <path d="M-15 0 C-22 -36 -18 -70 -12 -112" stroke="#377025" stroke-width="6" fill="none"/>
      <path d="M8 0 C3 -28 0 -50 -3 -74" stroke="#89c55a" stroke-width="3" fill="none"/>
      <path d="M-10 0 C-2 -24 0 -46 6 -72" stroke="#9dd16c" stroke-width="3" fill="none"/>
    </g>
<g transform="translate(820 95) scale(0.8)">
      <path d="M0 0 C-8 -42 -6 -72 0 -108" stroke="#2d5c1c" stroke-width="6" fill="none"/>
      <path d="M15 0 C10 -40 10 -78 16 -118" stroke="#316821" stroke-width="6" fill="none"/>
      <path d="M-15 0 C-22 -36 -18 -70 -12 -112" stroke="#377025" stroke-width="6" fill="none"/>
      <path d="M8 0 C3 -28 0 -50 -3 -74" stroke="#89c55a" stroke-width="3" fill="none"/>
      <path d="M-10 0 C-2 -24 0 -46 6 -72" stroke="#9dd16c" stroke-width="3" fill="none"/>
    </g>
<g transform="translate(85 360) scale(0.9)">
      <path d="M0 0 C-8 -42 -6 -72 0 -108" stroke="#2d5c1c" stroke-width="6" fill="none"/>
      <path d="M15 0 C10 -40 10 -78 16 -118" stroke="#316821" stroke-width="6" fill="none"/>
      <path d="M-15 0 C-22 -36 -18 -70 -12 -112" stroke="#377025" stroke-width="6" fill="none"/>
      <path d="M8 0 C3 -28 0 -50 -3 -74" stroke="#89c55a" stroke-width="3" fill="none"/>
      <path d="M-10 0 C-2 -24 0 -46 6 -72" stroke="#9dd16c" stroke-width="3" fill="none"/>
    </g>
<g transform="translate(1100 350) scale(0.9)">
      <path d="M0 0 C-8 -42 -6 -72 0 -108" stroke="#2d5c1c" stroke-width="6" fill="none"/>
      <path d="M15 0 C10 -40 10 -78 16 -118" stroke="#316821" stroke-width="6" fill="none"/>
      <path d="M-15 0 C-22 -36 -18 -70 -12 -112" stroke="#377025" stroke-width="6" fill="none"/>
      <path d="M8 0 C3 -28 0 -50 -3 -74" stroke="#89c55a" stroke-width="3" fill="none"/>
      <path d="M-10 0 C-2 -24 0 -46 6 -72" stroke="#9dd16c" stroke-width="3" fill="none"/>
    </g>
<g transform="translate(90 580) scale(0.85)">
      <path d="M0 0 C-8 -42 -6 -72 0 -108" stroke="#2d5c1c" stroke-width="6" fill="none"/>
      <path d="M15 0 C10 -40 10 -78 16 -118" stroke="#316821" stroke-width="6" fill="none"/>
      <path d="M-15 0 C-22 -36 -18 -70 -12 -112" stroke="#377025" stroke-width="6" fill="none"/>
      <path d="M8 0 C3 -28 0 -50 -3 -74" stroke="#89c55a" stroke-width="3" fill="none"/>
      <path d="M-10 0 C-2 -24 0 -46 6 -72" stroke="#9dd16c" stroke-width="3" fill="none"/>
    </g>
<g transform="translate(1090 560) scale(0.95)">
      <path d="M0 0 C-8 -42 -6 -72 0 -108" stroke="#2d5c1c" stroke-width="6" fill="none"/>
      <path d="M15 0 C10 -40 10 -78 16 -118" stroke="#316821" stroke-width="6" fill="none"/>
      <path d="M-15 0 C-22 -36 -18 -70 -12 -112" stroke="#377025" stroke-width="6" fill="none"/>
      <path d="M8 0 C3 -28 0 -50 -3 -74" stroke="#89c55a" stroke-width="3" fill="none"/>
      <path d="M-10 0 C-2 -24 0 -46 6 -72" stroke="#9dd16c" stroke-width="3" fill="none"/>
    </g>
<g transform="translate(420 790) scale(0.9)">
      <path d="M0 0 C-8 -42 -6 -72 0 -108" stroke="#2d5c1c" stroke-width="6" fill="none"/>
      <path d="M15 0 C10 -40 10 -78 16 -118" stroke="#316821" stroke-width="6" fill="none"/>
      <path d="M-15 0 C-22 -36 -18 -70 -12 -112" stroke="#377025" stroke-width="6" fill="none"/>
      <path d="M8 0 C3 -28 0 -50 -3 -74" stroke="#89c55a" stroke-width="3" fill="none"/>
      <path d="M-10 0 C-2 -24 0 -46 6 -72" stroke="#9dd16c" stroke-width="3" fill="none"/>
    </g>
<g transform="translate(610 790) scale(0.9)">
      <path d="M0 0 C-8 -42 -6 -72 0 -108" stroke="#2d5c1c" stroke-width="6" fill="none"/>
      <path d="M15 0 C10 -40 10 -78 16 -118" stroke="#316821" stroke-width="6" fill="none"/>
      <path d="M-15 0 C-22 -36 -18 -70 -12 -112" stroke="#377025" stroke-width="6" fill="none"/>
      <path d="M8 0 C3 -28 0 -50 -3 -74" stroke="#89c55a" stroke-width="3" fill="none"/>
      <path d="M-10 0 C-2 -24 0 -46 6 -72" stroke="#9dd16c" stroke-width="3" fill="none"/>
    </g>
<g transform="translate(120 120) scale(1.0)">
      <path d="M0 0 C-2 -28 -2 -55 0 -88" stroke="#2a611d" stroke-width="5" fill="none"/>
      <rect x="-6" y="-118" width="12" height="34" rx="6" fill="#7b4a1d"/>
      <path d="M16 0 C12 -24 10 -50 12 -80" stroke="#336c22" stroke-width="5" fill="none"/>
      <rect x="7" y="-106" width="10" height="30" rx="5" fill="#8a5521"/>
      <path d="M-16 0 C-12 -26 -12 -52 -12 -84" stroke="#3e7b29" stroke-width="5" fill="none"/>
      <rect x="-18" y="-110" width="10" height="28" rx="5" fill="#8a5521"/>
    </g>
<g transform="translate(1020 140) scale(1.1)">
      <path d="M0 0 C-2 -28 -2 -55 0 -88" stroke="#2a611d" stroke-width="5" fill="none"/>
      <rect x="-6" y="-118" width="12" height="34" rx="6" fill="#7b4a1d"/>
      <path d="M16 0 C12 -24 10 -50 12 -80" stroke="#336c22" stroke-width="5" fill="none"/>
      <rect x="7" y="-106" width="10" height="30" rx="5" fill="#8a5521"/>
      <path d="M-16 0 C-12 -26 -12 -52 -12 -84" stroke="#3e7b29" stroke-width="5" fill="none"/>
      <rect x="-18" y="-110" width="10" height="28" rx="5" fill="#8a5521"/>
    </g>
<g transform="translate(140 720) scale(1.2)">
      <path d="M0 0 C-2 -28 -2 -55 0 -88" stroke="#2a611d" stroke-width="5" fill="none"/>
      <rect x="-6" y="-118" width="12" height="34" rx="6" fill="#7b4a1d"/>
      <path d="M16 0 C12 -24 10 -50 12 -80" stroke="#336c22" stroke-width="5" fill="none"/>
      <rect x="7" y="-106" width="10" height="30" rx="5" fill="#8a5521"/>
      <path d="M-16 0 C-12 -26 -12 -52 -12 -84" stroke="#3e7b29" stroke-width="5" fill="none"/>
      <rect x="-18" y="-110" width="10" height="28" rx="5" fill="#8a5521"/>
    </g>
<g transform="translate(1080 715) scale(1.0)">
      <path d="M0 0 C-2 -28 -2 -55 0 -88" stroke="#2a611d" stroke-width="5" fill="none"/>
      <rect x="-6" y="-118" width="12" height="34" rx="6" fill="#7b4a1d"/>
      <path d="M16 0 C12 -24 10 -50 12 -80" stroke="#336c22" stroke-width="5" fill="none"/>
      <rect x="7" y="-106" width="10" height="30" rx="5" fill="#8a5521"/>
      <path d="M-16 0 C-12 -26 -12 -52 -12 -84" stroke="#3e7b29" stroke-width="5" fill="none"/>
      <rect x="-18" y="-110" width="10" height="28" rx="5" fill="#8a5521"/>
    </g>
<g transform="translate(600 115) scale(0.9)">
      <path d="M0 0 C-2 -28 -2 -55 0 -88" stroke="#2a611d" stroke-width="5" fill="none"/>
      <rect x="-6" y="-118" width="12" height="34" rx="6" fill="#7b4a1d"/>
      <path d="M16 0 C12 -24 10 -50 12 -80" stroke="#336c22" stroke-width="5" fill="none"/>
      <rect x="7" y="-106" width="10" height="30" rx="5" fill="#8a5521"/>
      <path d="M-16 0 C-12 -26 -12 -52 -12 -84" stroke="#3e7b29" stroke-width="5" fill="none"/>
      <rect x="-18" y="-110" width="10" height="28" rx="5" fill="#8a5521"/>
    </g>
<g transform="translate(920 420) scale(0.95)">
      <path d="M0 0 C-2 -28 -2 -55 0 -88" stroke="#2a611d" stroke-width="5" fill="none"/>
      <rect x="-6" y="-118" width="12" height="34" rx="6" fill="#7b4a1d"/>
      <path d="M16 0 C12 -24 10 -50 12 -80" stroke="#336c22" stroke-width="5" fill="none"/>
      <rect x="7" y="-106" width="10" height="30" rx="5" fill="#8a5521"/>
      <path d="M-16 0 C-12 -26 -12 -52 -12 -84" stroke="#3e7b29" stroke-width="5" fill="none"/>
      <rect x="-18" y="-110" width="10" height="28" rx="5" fill="#8a5521"/>
    </g>
<g transform="translate(255 430) scale(0.9)">
      <path d="M0 0 C-2 -28 -2 -55 0 -88" stroke="#2a611d" stroke-width="5" fill="none"/>
      <rect x="-6" y="-118" width="12" height="34" rx="6" fill="#7b4a1d"/>
      <path d="M16 0 C12 -24 10 -50 12 -80" stroke="#336c22" stroke-width="5" fill="none"/>
      <rect x="7" y="-106" width="10" height="30" rx="5" fill="#8a5521"/>
      <path d="M-16 0 C-12 -26 -12 -52 -12 -84" stroke="#3e7b29" stroke-width="5" fill="none"/>
      <rect x="-18" y="-110" width="10" height="28" rx="5" fill="#8a5521"/>
    </g>
<g transform="translate(730 760) scale(1.0)">
      <path d="M0 0 C-2 -28 -2 -55 0 -88" stroke="#2a611d" stroke-width="5" fill="none"/>
      <rect x="-6" y="-118" width="12" height="34" rx="6" fill="#7b4a1d"/>
      <path d="M16 0 C12 -24 10 -50 12 -80" stroke="#336c22" stroke-width="5" fill="none"/>
      <rect x="7" y="-106" width="10" height="30" rx="5" fill="#8a5521"/>
      <path d="M-16 0 C-12 -26 -12 -52 -12 -84" stroke="#3e7b29" stroke-width="5" fill="none"/>
      <rect x="-18" y="-110" width="10" height="28" rx="5" fill="#8a5521"/>
    </g>
<g transform="translate(300 160) rotate(-14)">
      <circle r="28" fill="#6aa436" stroke="#3f6e21" stroke-width="4"/>
      <path d="M0 0 L28 -6 A28 28 0 0 1 20.16 19.040000000000003 Z" fill="url(#marshWater)"/>
      <path d="M0 0 L-15.400000000000002 -20.16" stroke="#89c956" stroke-width="3" opacity=".75"/>
    </g>
<g transform="translate(850 165) rotate(10)">
      <circle r="24" fill="#6aa436" stroke="#3f6e21" stroke-width="4"/>
      <path d="M0 0 L24 -6 A24 24 0 0 1 17.28 16.32 Z" fill="url(#marshWater)"/>
      <path d="M0 0 L-13.200000000000001 -17.28" stroke="#89c956" stroke-width="3" opacity=".75"/>
    </g>
<g transform="translate(260 680) rotate(-8)">
      <circle r="34" fill="#6aa436" stroke="#3f6e21" stroke-width="4"/>
      <path d="M0 0 L34 -6 A34 34 0 0 1 24.48 23.12 Z" fill="url(#marshWater)"/>
      <path d="M0 0 L-18.700000000000003 -24.48" stroke="#89c956" stroke-width="3" opacity=".75"/>
    </g>
<g transform="translate(840 665) rotate(14)">
      <circle r="30" fill="#6aa436" stroke="#3f6e21" stroke-width="4"/>
      <path d="M0 0 L30 -6 A30 30 0 0 1 21.599999999999998 20.400000000000002 Z" fill="url(#marshWater)"/>
      <path d="M0 0 L-16.5 -21.599999999999998" stroke="#89c956" stroke-width="3" opacity=".75"/>
    </g>
<g transform="translate(595 455) rotate(5)">
      <circle r="25" fill="#6aa436" stroke="#3f6e21" stroke-width="4"/>
      <path d="M0 0 L25 -6 A25 25 0 0 1 18.0 17.0 Z" fill="url(#marshWater)"/>
      <path d="M0 0 L-13.750000000000002 -18.0" stroke="#89c956" stroke-width="3" opacity=".75"/>
    </g>
<g fill="#b7e06f" opacity=".9">
      <circle cx="155" cy="210" r="8"/><circle cx="169" cy="214" r="6"/>
      <circle cx="145" cy="219" r="5"/><circle cx="162" cy="225" r="5"/>
    </g>
<g fill="#b7e06f" opacity=".9">
      <circle cx="400" cy="185" r="8"/><circle cx="414" cy="189" r="6"/>
      <circle cx="390" cy="194" r="5"/><circle cx="407" cy="200" r="5"/>
    </g>
<g fill="#b7e06f" opacity=".9">
      <circle cx="720" cy="160" r="8"/><circle cx="734" cy="164" r="6"/>
      <circle cx="710" cy="169" r="5"/><circle cx="727" cy="175" r="5"/>
    </g>
<g fill="#b7e06f" opacity=".9">
      <circle cx="980" cy="250" r="8"/><circle cx="994" cy="254" r="6"/>
      <circle cx="970" cy="259" r="5"/><circle cx="987" cy="265" r="5"/>
    </g>
<g fill="#b7e06f" opacity=".9">
      <circle cx="210" cy="500" r="8"/><circle cx="224" cy="504" r="6"/>
      <circle cx="200" cy="509" r="5"/><circle cx="217" cy="515" r="5"/>
    </g>
<g fill="#b7e06f" opacity=".9">
      <circle cx="530" cy="355" r="8"/><circle cx="544" cy="359" r="6"/>
      <circle cx="520" cy="364" r="5"/><circle cx="537" cy="370" r="5"/>
    </g>
<g fill="#b7e06f" opacity=".9">
      <circle cx="785" cy="520" r="8"/><circle cx="799" cy="524" r="6"/>
      <circle cx="775" cy="529" r="5"/><circle cx="792" cy="535" r="5"/>
    </g>
<g fill="#b7e06f" opacity=".9">
      <circle cx="970" cy="620" r="8"/><circle cx="984" cy="624" r="6"/>
      <circle cx="960" cy="629" r="5"/><circle cx="977" cy="635" r="5"/>
    </g>
<g fill="#b7e06f" opacity=".9">
      <circle cx="650" cy="735" r="8"/><circle cx="664" cy="739" r="6"/>
      <circle cx="640" cy="744" r="5"/><circle cx="657" cy="750" r="5"/>
    </g>
<g transform="translate(930 235)">
      <g fill="#fff8f0" stroke="#ffffff" stroke-width="2" opacity=".98">
        <ellipse rx="14" ry="28" transform="rotate(0) translate(0 -15)"/>
        <ellipse rx="14" ry="28" transform="rotate(60) translate(0 -15)"/>
        <ellipse rx="14" ry="28" transform="rotate(120) translate(0 -15)"/>
      </g>
      <circle r="10" fill="#efc548"/>
    </g>
<g transform="translate(305 635)">
      <g fill="#ffd2e5" stroke="#ffffff" stroke-width="2" opacity=".98">
        <ellipse rx="14" ry="28" transform="rotate(0) translate(0 -15)"/>
        <ellipse rx="14" ry="28" transform="rotate(60) translate(0 -15)"/>
        <ellipse rx="14" ry="28" transform="rotate(120) translate(0 -15)"/>
      </g>
      <circle r="10" fill="#f2c648"/>
    </g>
<g id="movement-graph" stroke="#eef9e2" stroke-width="5" stroke-linecap="round" opacity=".88">
<line x1="170" y1="145" x2="315" y2="120" data-from="n0_0" data-to="n0_1"/>
<line x1="170" y1="145" x2="120" y2="255" data-from="n0_0" data-to="n1_0"/>
<line x1="170" y1="145" x2="260" y2="235" data-from="n0_0" data-to="n1_1"/>
<line x1="315" y1="120" x2="470" y2="150" data-from="n0_1" data-to="n0_2"/>
<line x1="315" y1="120" x2="260" y2="235" data-from="n0_1" data-to="n1_1"/>
<line x1="315" y1="120" x2="405" y2="270" data-from="n0_1" data-to="n1_2"/>
<line x1="470" y1="150" x2="625" y2="115" data-from="n0_2" data-to="n0_3"/>
<line x1="470" y1="150" x2="560" y2="230" data-from="n0_2" data-to="n1_3"/>
<line x1="625" y1="115" x2="790" y2="155" data-from="n0_3" data-to="n0_4"/>
<line x1="625" y1="115" x2="560" y2="230" data-from="n0_3" data-to="n1_3"/>
<line x1="625" y1="115" x2="720" y2="260" data-from="n0_3" data-to="n1_4"/>
<line x1="790" y1="155" x2="950" y2="125" data-from="n0_4" data-to="n0_5"/>
<line x1="790" y1="155" x2="720" y2="260" data-from="n0_4" data-to="n1_4"/>
<line x1="790" y1="155" x2="875" y2="225" data-from="n0_4" data-to="n1_5"/>
<line x1="950" y1="125" x2="875" y2="225" data-from="n0_5" data-to="n1_5"/>
<line x1="950" y1="125" x2="1030" y2="270" data-from="n0_5" data-to="n1_6"/>
<line x1="120" y1="255" x2="260" y2="235" data-from="n1_0" data-to="n1_1"/>
<line x1="260" y1="235" x2="405" y2="270" data-from="n1_1" data-to="n1_2"/>
<line x1="260" y1="235" x2="175" y2="370" data-from="n1_1" data-to="n2_0"/>
<line x1="260" y1="235" x2="335" y2="350" data-from="n1_1" data-to="n2_1"/>
<line x1="405" y1="270" x2="560" y2="230" data-from="n1_2" data-to="n1_3"/>
<line x1="405" y1="270" x2="335" y2="350" data-from="n1_2" data-to="n2_1"/>
<line x1="405" y1="270" x2="490" y2="390" data-from="n1_2" data-to="n2_2"/>
<line x1="560" y1="230" x2="650" y2="340" data-from="n1_3" data-to="n2_3"/>
<line x1="720" y1="260" x2="875" y2="225" data-from="n1_4" data-to="n1_5"/>
<line x1="720" y1="260" x2="650" y2="340" data-from="n1_4" data-to="n2_3"/>
<line x1="875" y1="225" x2="1030" y2="270" data-from="n1_5" data-to="n1_6"/>
<line x1="875" y1="225" x2="965" y2="355" data-from="n1_5" data-to="n2_5"/>
<line x1="1030" y1="270" x2="965" y2="355" data-from="n1_6" data-to="n2_5"/>
<line x1="175" y1="370" x2="115" y2="495" data-from="n2_0" data-to="n3_0"/>
<line x1="175" y1="370" x2="275" y2="470" data-from="n2_0" data-to="n3_1"/>
<line x1="335" y1="350" x2="490" y2="390" data-from="n2_1" data-to="n2_2"/>
<line x1="335" y1="350" x2="275" y2="470" data-from="n2_1" data-to="n3_1"/>
<line x1="490" y1="390" x2="590" y2="465" data-from="n2_2" data-to="n3_3"/>
<line x1="650" y1="340" x2="805" y2="380" data-from="n2_3" data-to="n2_4"/>
<line x1="650" y1="340" x2="590" y2="465" data-from="n2_3" data-to="n3_3"/>
<line x1="805" y1="380" x2="965" y2="355" data-from="n2_4" data-to="n2_5"/>
<line x1="805" y1="380" x2="750" y2="505" data-from="n2_4" data-to="n3_4"/>
<line x1="805" y1="380" x2="900" y2="460" data-from="n2_4" data-to="n3_5"/>
<line x1="965" y1="355" x2="900" y2="460" data-from="n2_5" data-to="n3_5"/>
<line x1="965" y1="355" x2="1050" y2="500" data-from="n2_5" data-to="n3_6"/>
<line x1="115" y1="495" x2="275" y2="470" data-from="n3_0" data-to="n3_1"/>
<line x1="275" y1="470" x2="430" y2="515" data-from="n3_1" data-to="n3_2"/>
<line x1="275" y1="470" x2="330" y2="590" data-from="n3_1" data-to="n4_1"/>
<line x1="430" y1="515" x2="330" y2="590" data-from="n3_2" data-to="n4_1"/>
<line x1="430" y1="515" x2="500" y2="635" data-from="n3_2" data-to="n4_2"/>
<line x1="590" y1="465" x2="750" y2="505" data-from="n3_3" data-to="n3_4"/>
<line x1="590" y1="465" x2="655" y2="585" data-from="n3_3" data-to="n4_3"/>
<line x1="750" y1="505" x2="900" y2="460" data-from="n3_4" data-to="n3_5"/>
<line x1="750" y1="505" x2="655" y2="585" data-from="n3_4" data-to="n4_3"/>
<line x1="750" y1="505" x2="820" y2="625" data-from="n3_4" data-to="n4_4"/>
<line x1="900" y1="460" x2="1050" y2="500" data-from="n3_5" data-to="n3_6"/>
<line x1="1050" y1="500" x2="980" y2="590" data-from="n3_6" data-to="n4_5"/>
<line x1="175" y1="615" x2="330" y2="590" data-from="n4_0" data-to="n4_1"/>
<line x1="175" y1="615" x2="120" y2="735" data-from="n4_0" data-to="n5_0"/>
<line x1="175" y1="615" x2="285" y2="710" data-from="n4_0" data-to="n5_1"/>
<line x1="330" y1="590" x2="285" y2="710" data-from="n4_1" data-to="n5_1"/>
<line x1="500" y1="635" x2="655" y2="585" data-from="n4_2" data-to="n4_3"/>
<line x1="500" y1="635" x2="610" y2="700" data-from="n4_2" data-to="n5_3"/>
<line x1="655" y1="585" x2="610" y2="700" data-from="n4_3" data-to="n5_3"/>
<line x1="820" y1="625" x2="980" y2="590" data-from="n4_4" data-to="n4_5"/>
<line x1="820" y1="625" x2="775" y2="745" data-from="n4_4" data-to="n5_4"/>
<line x1="820" y1="625" x2="930" y2="705" data-from="n4_4" data-to="n5_5"/>
<line x1="980" y1="590" x2="1040" y2="750" data-from="n4_5" data-to="n5_6"/>
<line x1="120" y1="735" x2="285" y2="710" data-from="n5_0" data-to="n5_1"/>
<line x1="285" y1="710" x2="445" y2="750" data-from="n5_1" data-to="n5_2"/>
<line x1="445" y1="750" x2="610" y2="700" data-from="n5_2" data-to="n5_3"/>
<line x1="610" y1="700" x2="775" y2="745" data-from="n5_3" data-to="n5_4"/>
<line x1="775" y1="745" x2="930" y2="705" data-from="n5_4" data-to="n5_5"/>
<line x1="930" y1="705" x2="1040" y2="750" data-from="n5_5" data-to="n5_6"/>
</g>
<g id="movement-nodes">
<g id="n0_0" class="move-node" data-node-id="n0_0">
      <circle cx="170" cy="145" r="17" fill="#dff4c1" stroke="#f8ffe9" stroke-width="4"/>
      <circle cx="166" cy="140" r="5" fill="#ffffff" opacity=".65"/>
    </g>
<g id="n0_1" class="move-node" data-node-id="n0_1">
      <circle cx="315" cy="120" r="17" fill="#dff4c1" stroke="#f8ffe9" stroke-width="4"/>
      <circle cx="311" cy="115" r="5" fill="#ffffff" opacity=".65"/>
    </g>
<g id="n0_2" class="move-node" data-node-id="n0_2">
      <circle cx="470" cy="150" r="17" fill="#dff4c1" stroke="#f8ffe9" stroke-width="4"/>
      <circle cx="466" cy="145" r="5" fill="#ffffff" opacity=".65"/>
    </g>
<g id="n0_3" class="move-node" data-node-id="n0_3">
      <circle cx="625" cy="115" r="17" fill="#dff4c1" stroke="#f8ffe9" stroke-width="4"/>
      <circle cx="621" cy="110" r="5" fill="#ffffff" opacity=".65"/>
    </g>
<g id="n0_4" class="move-node" data-node-id="n0_4">
      <circle cx="790" cy="155" r="17" fill="#dff4c1" stroke="#f8ffe9" stroke-width="4"/>
      <circle cx="786" cy="150" r="5" fill="#ffffff" opacity=".65"/>
    </g>
<g id="n1_0" class="move-node" data-node-id="n1_0">
      <circle cx="120" cy="255" r="17" fill="#dff4c1" stroke="#f8ffe9" stroke-width="4"/>
      <circle cx="116" cy="250" r="5" fill="#ffffff" opacity=".65"/>
    </g>
<g id="n1_2" class="move-node" data-node-id="n1_2">
      <circle cx="405" cy="270" r="17" fill="#dff4c1" stroke="#f8ffe9" stroke-width="4"/>
      <circle cx="401" cy="265" r="5" fill="#ffffff" opacity=".65"/>
    </g>
<g id="n1_3" class="move-node" data-node-id="n1_3">
      <circle cx="560" cy="230" r="17" fill="#dff4c1" stroke="#f8ffe9" stroke-width="4"/>
      <circle cx="556" cy="225" r="5" fill="#ffffff" opacity=".65"/>
    </g>
<g id="n1_4" class="move-node" data-node-id="n1_4">
      <circle cx="720" cy="260" r="17" fill="#dff4c1" stroke="#f8ffe9" stroke-width="4"/>
      <circle cx="716" cy="255" r="5" fill="#ffffff" opacity=".65"/>
    </g>
<g id="n1_5" class="move-node" data-node-id="n1_5">
      <circle cx="875" cy="225" r="17" fill="#dff4c1" stroke="#f8ffe9" stroke-width="4"/>
      <circle cx="871" cy="220" r="5" fill="#ffffff" opacity=".65"/>
    </g>
<g id="n1_6" class="move-node" data-node-id="n1_6">
      <circle cx="1030" cy="270" r="17" fill="#dff4c1" stroke="#f8ffe9" stroke-width="4"/>
      <circle cx="1026" cy="265" r="5" fill="#ffffff" opacity=".65"/>
    </g>
<g id="n2_0" class="move-node" data-node-id="n2_0">
      <circle cx="175" cy="370" r="17" fill="#dff4c1" stroke="#f8ffe9" stroke-width="4"/>
      <circle cx="171" cy="365" r="5" fill="#ffffff" opacity=".65"/>
    </g>
<g id="n2_1" class="move-node" data-node-id="n2_1">
      <circle cx="335" cy="350" r="17" fill="#dff4c1" stroke="#f8ffe9" stroke-width="4"/>
      <circle cx="331" cy="345" r="5" fill="#ffffff" opacity=".65"/>
    </g>
<g id="n2_2" class="move-node" data-node-id="n2_2">
      <circle cx="490" cy="390" r="17" fill="#dff4c1" stroke="#f8ffe9" stroke-width="4"/>
      <circle cx="486" cy="385" r="5" fill="#ffffff" opacity=".65"/>
    </g>
<g id="n2_4" class="move-node" data-node-id="n2_4">
      <circle cx="805" cy="380" r="17" fill="#dff4c1" stroke="#f8ffe9" stroke-width="4"/>
      <circle cx="801" cy="375" r="5" fill="#ffffff" opacity=".65"/>
    </g>
<g id="n2_5" class="move-node" data-node-id="n2_5">
      <circle cx="965" cy="355" r="17" fill="#dff4c1" stroke="#f8ffe9" stroke-width="4"/>
      <circle cx="961" cy="350" r="5" fill="#ffffff" opacity=".65"/>
    </g>
<g id="n3_0" class="move-node" data-node-id="n3_0">
      <circle cx="115" cy="495" r="17" fill="#dff4c1" stroke="#f8ffe9" stroke-width="4"/>
      <circle cx="111" cy="490" r="5" fill="#ffffff" opacity=".65"/>
    </g>
<g id="n3_1" class="move-node" data-node-id="n3_1">
      <circle cx="275" cy="470" r="17" fill="#dff4c1" stroke="#f8ffe9" stroke-width="4"/>
      <circle cx="271" cy="465" r="5" fill="#ffffff" opacity=".65"/>
    </g>
<g id="n3_2" class="move-node" data-node-id="n3_2">
      <circle cx="430" cy="515" r="17" fill="#dff4c1" stroke="#f8ffe9" stroke-width="4"/>
      <circle cx="426" cy="510" r="5" fill="#ffffff" opacity=".65"/>
    </g>
<g id="n3_3" class="move-node" data-node-id="n3_3">
      <circle cx="590" cy="465" r="17" fill="#dff4c1" stroke="#f8ffe9" stroke-width="4"/>
      <circle cx="586" cy="460" r="5" fill="#ffffff" opacity=".65"/>
    </g>
<g id="n3_4" class="move-node" data-node-id="n3_4">
      <circle cx="750" cy="505" r="17" fill="#dff4c1" stroke="#f8ffe9" stroke-width="4"/>
      <circle cx="746" cy="500" r="5" fill="#ffffff" opacity=".65"/>
    </g>
<g id="n3_5" class="move-node" data-node-id="n3_5">
      <circle cx="900" cy="460" r="17" fill="#dff4c1" stroke="#f8ffe9" stroke-width="4"/>
      <circle cx="896" cy="455" r="5" fill="#ffffff" opacity=".65"/>
    </g>
<g id="n3_6" class="move-node" data-node-id="n3_6">
      <circle cx="1050" cy="500" r="17" fill="#dff4c1" stroke="#f8ffe9" stroke-width="4"/>
      <circle cx="1046" cy="495" r="5" fill="#ffffff" opacity=".65"/>
    </g>
<g id="n4_0" class="move-node" data-node-id="n4_0">
      <circle cx="175" cy="615" r="17" fill="#dff4c1" stroke="#f8ffe9" stroke-width="4"/>
      <circle cx="171" cy="610" r="5" fill="#ffffff" opacity=".65"/>
    </g>
<g id="n4_2" class="move-node" data-node-id="n4_2">
      <circle cx="500" cy="635" r="17" fill="#dff4c1" stroke="#f8ffe9" stroke-width="4"/>
      <circle cx="496" cy="630" r="5" fill="#ffffff" opacity=".65"/>
    </g>
<g id="n4_3" class="move-node" data-node-id="n4_3">
      <circle cx="655" cy="585" r="17" fill="#dff4c1" stroke="#f8ffe9" stroke-width="4"/>
      <circle cx="651" cy="580" r="5" fill="#ffffff" opacity=".65"/>
    </g>
<g id="n4_4" class="move-node" data-node-id="n4_4">
      <circle cx="820" cy="625" r="17" fill="#dff4c1" stroke="#f8ffe9" stroke-width="4"/>
      <circle cx="816" cy="620" r="5" fill="#ffffff" opacity=".65"/>
    </g>
<g id="n4_5" class="move-node" data-node-id="n4_5">
      <circle cx="980" cy="590" r="17" fill="#dff4c1" stroke="#f8ffe9" stroke-width="4"/>
      <circle cx="976" cy="585" r="5" fill="#ffffff" opacity=".65"/>
    </g>
<g id="n5_0" class="move-node" data-node-id="n5_0">
      <circle cx="120" cy="735" r="17" fill="#dff4c1" stroke="#f8ffe9" stroke-width="4"/>
      <circle cx="116" cy="730" r="5" fill="#ffffff" opacity=".65"/>
    </g>
<g id="n5_1" class="move-node" data-node-id="n5_1">
      <circle cx="285" cy="710" r="17" fill="#dff4c1" stroke="#f8ffe9" stroke-width="4"/>
      <circle cx="281" cy="705" r="5" fill="#ffffff" opacity=".65"/>
    </g>
<g id="n5_2" class="move-node" data-node-id="n5_2">
      <circle cx="445" cy="750" r="17" fill="#dff4c1" stroke="#f8ffe9" stroke-width="4"/>
      <circle cx="441" cy="745" r="5" fill="#ffffff" opacity=".65"/>
    </g>
<g id="n5_4" class="move-node" data-node-id="n5_4">
      <circle cx="775" cy="745" r="17" fill="#dff4c1" stroke="#f8ffe9" stroke-width="4"/>
      <circle cx="771" cy="740" r="5" fill="#ffffff" opacity=".65"/>
    </g>
<g id="n5_5" class="move-node" data-node-id="n5_5">
      <circle cx="930" cy="705" r="17" fill="#dff4c1" stroke="#f8ffe9" stroke-width="4"/>
      <circle cx="926" cy="700" r="5" fill="#ffffff" opacity=".65"/>
    </g>
<g id="n5_6" class="move-node" data-node-id="n5_6">
      <circle cx="1040" cy="750" r="17" fill="#dff4c1" stroke="#f8ffe9" stroke-width="4"/>
      <circle cx="1036" cy="745" r="5" fill="#ffffff" opacity=".65"/>
    </g>
</g>
<g id="holes">
<g id="n0_5" class="hole-node" data-node-id="n0_5" data-hole="true">
      <circle cx="950" cy="125" r="56" fill="#efffd7" opacity=".95"/>
      <circle cx="950" cy="125" r="49" fill="#85b25a" stroke="#fbffed" stroke-width="5"/>
      <circle cx="950" cy="125" r="39" fill="url(#hole)"/>
      <ellipse cx="942" cy="114" rx="18" ry="8" fill="#ffffff" opacity=".10"/>
    </g>
<g id="n1_1" class="hole-node" data-node-id="n1_1" data-hole="true">
      <circle cx="260" cy="235" r="56" fill="#efffd7" opacity=".95"/>
      <circle cx="260" cy="235" r="49" fill="#85b25a" stroke="#fbffed" stroke-width="5"/>
      <circle cx="260" cy="235" r="39" fill="url(#hole)"/>
      <ellipse cx="252" cy="224" rx="18" ry="8" fill="#ffffff" opacity=".10"/>
    </g>
<g id="n2_3" class="hole-node" data-node-id="n2_3" data-hole="true">
      <circle cx="650" cy="340" r="56" fill="#efffd7" opacity=".95"/>
      <circle cx="650" cy="340" r="49" fill="#85b25a" stroke="#fbffed" stroke-width="5"/>
      <circle cx="650" cy="340" r="39" fill="url(#hole)"/>
      <ellipse cx="642" cy="329" rx="18" ry="8" fill="#ffffff" opacity=".10"/>
    </g>
<g id="n4_1" class="hole-node" data-node-id="n4_1" data-hole="true">
      <circle cx="330" cy="590" r="56" fill="#efffd7" opacity=".95"/>
      <circle cx="330" cy="590" r="49" fill="#85b25a" stroke="#fbffed" stroke-width="5"/>
      <circle cx="330" cy="590" r="39" fill="url(#hole)"/>
      <ellipse cx="322" cy="579" rx="18" ry="8" fill="#ffffff" opacity=".10"/>
    </g>
<g id="n5_3" class="hole-node" data-node-id="n5_3" data-hole="true">
      <circle cx="610" cy="700" r="56" fill="#efffd7" opacity=".95"/>
      <circle cx="610" cy="700" r="49" fill="#85b25a" stroke="#fbffed" stroke-width="5"/>
      <circle cx="610" cy="700" r="39" fill="url(#hole)"/>
      <ellipse cx="602" cy="689" rx="18" ry="8" fill="#ffffff" opacity=".10"/>
    </g>
</g>
<rect x="48" y="48" width="1104" height="804" rx="38" fill="none" stroke="#f1ffe1" stroke-width="3" opacity=".35"/>
</svg>