<svg xmlns="http://www.w3.org/2000/svg" viewBox="0 0 1200 900" role="img" aria-labelledby="title desc">
<title id="title">Duck Deep Flachwasser</title>
<desc id="desc">Flachwasser-Ebene mit identischem Bewegungsnetz wie die ersten Ebenen und drei neuen Tauchlöchern ohne Positionsüberschneidung.</desc>
<defs>
  <linearGradient id="shallowWater" x1="0" y1="0" x2="1" y2="1">
    <stop offset="0%" stop-color="#7ed8d8"/>
    <stop offset="52%" stop-color="#59c2cf"/>
    <stop offset="100%" stop-color="#2ea8b6"/>
  </linearGradient>
  <linearGradient id="rim" x1="0" y1="0" x2="0" y2="1">
    <stop offset="0%" stop-color="#4d8b8f"/>
    <stop offset="100%" stop-color="#2f666a"/>
  </linearGradient>
  <radialGradient id="hole" cx="50%" cy="42%" r="60%">
    <stop offset="0%" stop-color="#123042"/>
    <stop offset="70%" stop-color="#091926"/>
    <stop offset="100%" stop-color="#040b11"/>
  </radialGradient>
  <filter id="shadow" x="-20%" y="-20%" width="140%" height="140%">
    <feDropShadow dx="0" dy="10" stdDeviation="12" flood-color="#163138" flood-opacity=".22"/>
  </filter>
</defs>
<g id="board" filter="url(#shadow)">
  <rect x="20" y="20" width="1160" height="860" rx="54" fill="url(#rim)"/>
  <rect x="46" y="46" width="1108" height="808" rx="40" fill="url(#shallowWater)" stroke="#d8fbff" stroke-width="4"/>
</g>

<ellipse cx="210" cy="180" rx="82" ry="30" fill="none" stroke="#d9fbff" stroke-width="4" opacity=".10"/>
<ellipse cx="220" cy="184" rx="54" ry="18" fill="none" stroke="#ffffff" stroke-width="3" opacity=".10"/>
<ellipse cx="570" cy="160" rx="82" ry="30" fill="none" stroke="#d9fbff" stroke-width="4" opacity=".10"/>
<ellipse cx="580" cy="164" rx="54" ry="18" fill="none" stroke="#ffffff" stroke-width="3" opacity=".10"/>
<ellipse cx="900" cy="230" rx="82" ry="30" fill="none" stroke="#d9fbff" stroke-width="4" opacity=".10"/>
<ellipse cx="910" cy="234" rx="54" ry="18" fill="none" stroke="#ffffff" stroke-width="3" opacity=".10"/>
<ellipse cx="330" cy="510" rx="82" ry="30" fill="none" stroke="#d9fbff" stroke-width="4" opacity=".10"/>
<ellipse cx="340" cy="514" rx="54" ry="18" fill="none" stroke="#ffffff" stroke-width="3" opacity=".10"/>
<ellipse cx="760" cy="430" rx="82" ry="30" fill="none" stroke="#d9fbff" stroke-width="4" opacity=".10"/>
<ellipse cx="770" cy="434" rx="54" ry="18" fill="none" stroke="#ffffff" stroke-width="3" opacity=".10"/>
<ellipse cx="980" cy="700" rx="82" ry="30" fill="none" stroke="#d9fbff" stroke-width="4" opacity=".10"/>
<ellipse cx="990" cy="704" rx="54" ry="18" fill="none" stroke="#ffffff" stroke-width="3" opacity=".10"/>
<ellipse cx="540" cy="690" rx="82" ry="30" fill="none" stroke="#d9fbff" stroke-width="4" opacity=".10"/>
<ellipse cx="550" cy="694" rx="54" ry="18" fill="none" stroke="#ffffff" stroke-width="3" opacity=".10"/>
<ellipse cx="150" cy="740" rx="82" ry="30" fill="none" stroke="#d9fbff" stroke-width="4" opacity=".10"/>
<ellipse cx="160" cy="744" rx="54" ry="18" fill="none" stroke="#ffffff" stroke-width="3" opacity=".10"/>
<g transform="translate(110 120)">
      <ellipse rx="24" ry="17.3" fill="#8ea3a6" stroke="#6c8084" stroke-width="4"/>
      <ellipse cx="-5" cy="-4" rx="8.4" ry="4.3" fill="#cbd5d6" opacity=".45"/>
    </g>
<g transform="translate(220 145)">
      <ellipse rx="16" ry="11.5" fill="#8ea3a6" stroke="#6c8084" stroke-width="4"/>
      <ellipse cx="-5" cy="-4" rx="5.6" ry="2.9" fill="#cbd5d6" opacity=".45"/>
    </g>
<g transform="translate(340 110)">
      <ellipse rx="14" ry="10.1" fill="#8ea3a6" stroke="#6c8084" stroke-width="4"/>
      <ellipse cx="-5" cy="-4" rx="4.9" ry="2.5" fill="#cbd5d6" opacity=".45"/>
    </g>
<g transform="translate(470 185)">
      <ellipse rx="18" ry="13.0" fill="#8ea3a6" stroke="#6c8084" stroke-width="4"/>
      <ellipse cx="-5" cy="-4" rx="6.3" ry="3.2" fill="#cbd5d6" opacity=".45"/>
    </g>
<g transform="translate(650 150)">
      <ellipse rx="22" ry="15.8" fill="#8ea3a6" stroke="#6c8084" stroke-width="4"/>
      <ellipse cx="-5" cy="-4" rx="7.7" ry="4.0" fill="#cbd5d6" opacity=".45"/>
    </g>
<g transform="translate(780 110)">
      <ellipse rx="15" ry="10.8" fill="#8ea3a6" stroke="#6c8084" stroke-width="4"/>
      <ellipse cx="-5" cy="-4" rx="5.2" ry="2.7" fill="#cbd5d6" opacity=".45"/>
    </g>
<g transform="translate(930 160)">
      <ellipse rx="20" ry="14.4" fill="#8ea3a6" stroke="#6c8084" stroke-width="4"/>
      <ellipse cx="-5" cy="-4" rx="7.0" ry="3.6" fill="#cbd5d6" opacity=".45"/>
    </g>
<g transform="translate(1050 120)">
      <ellipse rx="28" ry="20.2" fill="#8ea3a6" stroke="#6c8084" stroke-width="4"/>
      <ellipse cx="-5" cy="-4" rx="9.8" ry="5.0" fill="#cbd5d6" opacity=".45"/>
    </g>
<g transform="translate(160 330)">
      <ellipse rx="18" ry="13.0" fill="#8ea3a6" stroke="#6c8084" stroke-width="4"/>
      <ellipse cx="-5" cy="-4" rx="6.3" ry="3.2" fill="#cbd5d6" opacity=".45"/>
    </g>
<g transform="translate(980 340)">
      <ellipse rx="16" ry="11.5" fill="#8ea3a6" stroke="#6c8084" stroke-width="4"/>
      <ellipse cx="-5" cy="-4" rx="5.6" ry="2.9" fill="#cbd5d6" opacity=".45"/>
    </g>
<g transform="translate(255 475)">
      <ellipse rx="14" ry="10.1" fill="#8ea3a6" stroke="#6c8084" stroke-width="4"/>
      <ellipse cx="-5" cy="-4" rx="4.9" ry="2.5" fill="#cbd5d6" opacity=".45"/>
    </g>
<g transform="translate(540 410)">
      <ellipse rx="19" ry="13.7" fill="#8ea3a6" stroke="#6c8084" stroke-width="4"/>
      <ellipse cx="-5" cy="-4" rx="6.6" ry="3.4" fill="#cbd5d6" opacity=".45"/>
    </g>
<g transform="translate(760 450)">
      <ellipse rx="17" ry="12.2" fill="#8ea3a6" stroke="#6c8084" stroke-width="4"/>
      <ellipse cx="-5" cy="-4" rx="5.9" ry="3.1" fill="#cbd5d6" opacity=".45"/>
    </g>
<g transform="translate(1020 520)">
      <ellipse rx="18" ry="13.0" fill="#8ea3a6" stroke="#6c8084" stroke-width="4"/>
      <ellipse cx="-5" cy="-4" rx="6.3" ry="3.2" fill="#cbd5d6" opacity=".45"/>
    </g>
<g transform="translate(150 700)">
      <ellipse rx="20" ry="14.4" fill="#8ea3a6" stroke="#6c8084" stroke-width="4"/>
      <ellipse cx="-5" cy="-4" rx="7.0" ry="3.6" fill="#cbd5d6" opacity=".45"/>
    </g>
<g transform="translate(330 760)">
      <ellipse rx="16" ry="11.5" fill="#8ea3a6" stroke="#6c8084" stroke-width="4"/>
      <ellipse cx="-5" cy="-4" rx="5.6" ry="2.9" fill="#cbd5d6" opacity=".45"/>
    </g>
<g transform="translate(585 725)">
      <ellipse rx="17" ry="12.2" fill="#8ea3a6" stroke="#6c8084" stroke-width="4"/>
      <ellipse cx="-5" cy="-4" rx="5.9" ry="3.1" fill="#cbd5d6" opacity=".45"/>
    </g>
<g transform="translate(835 765)">
      <ellipse rx="19" ry="13.7" fill="#8ea3a6" stroke="#6c8084" stroke-width="4"/>
      <ellipse cx="-5" cy="-4" rx="6.6" ry="3.4" fill="#cbd5d6" opacity=".45"/>
    </g>
<g transform="translate(1050 710)">
      <ellipse rx="24" ry="17.3" fill="#8ea3a6" stroke="#6c8084" stroke-width="4"/>
      <ellipse cx="-5" cy="-4" rx="8.4" ry="4.3" fill="#cbd5d6" opacity=".45"/>
    </g>
<g transform="translate(100 780) scale(1.0)">
      <path d="M0 0 C-14 -24 -10 -46 0 -70 C10 -92 8 -112 0 -136" stroke="#2b7a4d" stroke-width="6" fill="none"/>
      <path d="M14 0 C10 -20 10 -42 18 -64 C26 -88 24 -106 14 -128" stroke="#3e975e" stroke-width="5" fill="none"/>
      <path d="M-14 0 C-20 -18 -22 -40 -18 -62 C-14 -86 -10 -104 -18 -126" stroke="#4ca46a" stroke-width="5" fill="none"/>
    </g>
<g transform="translate(250 770) scale(0.85)">
      <path d="M0 0 C-14 -24 -10 -46 0 -70 C10 -92 8 -112 0 -136" stroke="#2b7a4d" stroke-width="6" fill="none"/>
      <path d="M14 0 C10 -20 10 -42 18 -64 C26 -88 24 -106 14 -128" stroke="#3e975e" stroke-width="5" fill="none"/>
      <path d="M-14 0 C-20 -18 -22 -40 -18 -62 C-14 -86 -10 -104 -18 -126" stroke="#4ca46a" stroke-width="5" fill="none"/>
    </g>
<g transform="translate(450 95) scale(0.8)">
      <path d="M0 0 C-14 -24 -10 -46 0 -70 C10 -92 8 -112 0 -136" stroke="#2b7a4d" stroke-width="6" fill="none"/>
      <path d="M14 0 C10 -20 10 -42 18 -64 C26 -88 24 -106 14 -128" stroke="#3e975e" stroke-width="5" fill="none"/>
      <path d="M-14 0 C-20 -18 -22 -40 -18 -62 C-14 -86 -10 -104 -18 -126" stroke="#4ca46a" stroke-width="5" fill="none"/>
    </g>
<g transform="translate(670 85) scale(0.9)">
      <path d="M0 0 C-14 -24 -10 -46 0 -70 C10 -92 8 -112 0 -136" stroke="#2b7a4d" stroke-width="6" fill="none"/>
      <path d="M14 0 C10 -20 10 -42 18 -64 C26 -88 24 -106 14 -128" stroke="#3e975e" stroke-width="5" fill="none"/>
      <path d="M-14 0 C-20 -18 -22 -40 -18 -62 C-14 -86 -10 -104 -18 -126" stroke="#4ca46a" stroke-width="5" fill="none"/>
    </g>
<g transform="translate(935 95) scale(0.95)">
      <path d="M0 0 C-14 -24 -10 -46 0 -70 C10 -92 8 -112 0 -136" stroke="#2b7a4d" stroke-width="6" fill="none"/>
      <path d="M14 0 C10 -20 10 -42 18 -64 C26 -88 24 -106 14 -128" stroke="#3e975e" stroke-width="5" fill="none"/>
      <path d="M-14 0 C-20 -18 -22 -40 -18 -62 C-14 -86 -10 -104 -18 -126" stroke="#4ca46a" stroke-width="5" fill="none"/>
    </g>
<g transform="translate(1095 775) scale(1.0)">
      <path d="M0 0 C-14 -24 -10 -46 0 -70 C10 -92 8 -112 0 -136" stroke="#2b7a4d" stroke-width="6" fill="none"/>
      <path d="M14 0 C10 -20 10 -42 18 -64 C26 -88 24 -106 14 -128" stroke="#3e975e" stroke-width="5" fill="none"/>
      <path d="M-14 0 C-20 -18 -22 -40 -18 -62 C-14 -86 -10 -104 -18 -126" stroke="#4ca46a" stroke-width="5" fill="none"/>
    </g>
<g transform="translate(890 760) scale(0.8)">
      <path d="M0 0 C-14 -24 -10 -46 0 -70 C10 -92 8 -112 0 -136" stroke="#2b7a4d" stroke-width="6" fill="none"/>
      <path d="M14 0 C10 -20 10 -42 18 -64 C26 -88 24 -106 14 -128" stroke="#3e975e" stroke-width="5" fill="none"/>
      <path d="M-14 0 C-20 -18 -22 -40 -18 -62 C-14 -86 -10 -104 -18 -126" stroke="#4ca46a" stroke-width="5" fill="none"/>
    </g>
<g transform="translate(620 760) scale(0.9)">
      <path d="M0 0 C-14 -24 -10 -46 0 -70 C10 -92 8 -112 0 -136" stroke="#2b7a4d" stroke-width="6" fill="none"/>
      <path d="M14 0 C10 -20 10 -42 18 -64 C26 -88 24 -106 14 -128" stroke="#3e975e" stroke-width="5" fill="none"/>
      <path d="M-14 0 C-20 -18 -22 -40 -18 -62 C-14 -86 -10 -104 -18 -126" stroke="#4ca46a" stroke-width="5" fill="none"/>
    </g>
<g transform="translate(80 360) scale(0.8)">
      <path d="M0 0 C-14 -24 -10 -46 0 -70 C10 -92 8 -112 0 -136" stroke="#2b7a4d" stroke-width="6" fill="none"/>
      <path d="M14 0 C10 -20 10 -42 18 -64 C26 -88 24 -106 14 -128" stroke="#3e975e" stroke-width="5" fill="none"/>
      <path d="M-14 0 C-20 -18 -22 -40 -18 -62 C-14 -86 -10 -104 -18 -126" stroke="#4ca46a" stroke-width="5" fill="none"/>
    </g>
<g transform="translate(1120 420) scale(0.8)">
      <path d="M0 0 C-14 -24 -10 -46 0 -70 C10 -92 8 -112 0 -136" stroke="#2b7a4d" stroke-width="6" fill="none"/>
      <path d="M14 0 C10 -20 10 -42 18 -64 C26 -88 24 -106 14 -128" stroke="#3e975e" stroke-width="5" fill="none"/>
      <path d="M-14 0 C-20 -18 -22 -40 -18 -62 C-14 -86 -10 -104 -18 -126" stroke="#4ca46a" stroke-width="5" fill="none"/>
    </g>
<g transform="translate(210 705)">
      <path d="M0,-22 L8,-7 L25,-7 L12,3 L18,20 L0,10 L-18,20 L-12,3 L-25,-7 L-8,-7 Z"
            fill="#dc7a38" stroke="#b85d2a" stroke-width="3"/>
    </g>
<g transform="translate(930 650)">
      <path d="M0,-22 L8,-7 L25,-7 L12,3 L18,20 L0,10 L-18,20 L-12,3 L-25,-7 L-8,-7 Z"
            fill="#e2853f" stroke="#b85d2a" stroke-width="3"/>
    </g>
<g transform="translate(1030 230)">
      <path d="M-18 8 A18 18 0 0 1 18 8 L0 -14 Z" fill="#f4e6d2" stroke="#cfbda7" stroke-width="3"/>
      <path d="M-10 2 L0 -8 L10 2" stroke="#cfbda7" stroke-width="2" fill="none"/>
    </g>
<g transform="translate(335 625)">
      <path d="M-18 8 A18 18 0 0 1 18 8 L0 -14 Z" fill="#f6debf" stroke="#cfbda7" stroke-width="3"/>
      <path d="M-10 2 L0 -8 L10 2" stroke="#cfbda7" stroke-width="2" fill="none"/>
    </g>
<g transform="translate(715 565)">
      <path d="M-18 8 A18 18 0 0 1 18 8 L0 -14 Z" fill="#ead8c0" stroke="#cfbda7" stroke-width="3"/>
      <path d="M-10 2 L0 -8 L10 2" stroke="#cfbda7" stroke-width="2" fill="none"/>
    </g>
<g fill="#bce86d" opacity=".88">
      <circle cx="155" cy="210" r="8"/><circle cx="169" cy="214" r="6"/>
      <circle cx="145" cy="219" r="5"/><circle cx="162" cy="225" r="5"/>
    </g>
<g fill="#bce86d" opacity=".88">
      <circle cx="400" cy="185" r="8"/><circle cx="414" cy="189" r="6"/>
      <circle cx="390" cy="194" r="5"/><circle cx="407" cy="200" r="5"/>
    </g>
<g fill="#bce86d" opacity=".88">
      <circle cx="720" cy="160" r="8"/><circle cx="734" cy="164" r="6"/>
      <circle cx="710" cy="169" r="5"/><circle cx="727" cy="175" r="5"/>
    </g>
<g fill="#bce86d" opacity=".88">
      <circle cx="980" cy="250" r="8"/><circle cx="994" cy="254" r="6"/>
      <circle cx="970" cy="259" r="5"/><circle cx="987" cy="265" r="5"/>
    </g>
<g fill="#bce86d" opacity=".88">
      <circle cx="210" cy="500" r="8"/><circle cx="224" cy="504" r="6"/>
      <circle cx="200" cy="509" r="5"/><circle cx="217" cy="515" r="5"/>
    </g>
<g fill="#bce86d" opacity=".88">
      <circle cx="530" cy="355" r="8"/><circle cx="544" cy="359" r="6"/>
      <circle cx="520" cy="364" r="5"/><circle cx="537" cy="370" r="5"/>
    </g>
<g fill="#bce86d" opacity=".88">
      <circle cx="785" cy="520" r="8"/><circle cx="799" cy="524" r="6"/>
      <circle cx="775" cy="529" r="5"/><circle cx="792" cy="535" r="5"/>
    </g>
<g fill="#bce86d" opacity=".88">
      <circle cx="970" cy="620" r="8"/><circle cx="984" cy="624" r="6"/>
      <circle cx="960" cy="629" r="5"/><circle cx="977" cy="635" r="5"/>
    </g>
<g fill="#bce86d" opacity=".88">
      <circle cx="650" cy="735" r="8"/><circle cx="664" cy="739" r="6"/>
      <circle cx="640" cy="744" r="5"/><circle cx="657" cy="750" r="5"/>
    </g>
<g id="movement-graph" stroke="#eefcff" stroke-width="5" stroke-linecap="round" opacity=".88">
<line x1="170" y1="145" x2="315" y2="120" data-from="n0_0" data-to="n0_1"/>
<line x1="170" y1="145" x2="120" y2="255" data-from="n0_0" data-to="n1_0"/>
<line x1="170" y1="145" x2="260" y2="235" data-from="n0_0" data-to="n1_1"/>
<line x1="315" y1="120" x2="260" y2="235" data-from="n0_1" data-to="n1_1"/>
<line x1="315" y1="120" x2="405" y2="270" data-from="n0_1" data-to="n1_2"/>
<line x1="470" y1="150" x2="560" y2="230" data-from="n0_2" data-to="n1_3"/>
<line x1="625" y1="115" x2="790" y2="155" data-from="n0_3" data-to="n0_4"/>
<line x1="625" y1="115" x2="560" y2="230" data-from="n0_3" data-to="n1_3"/>
<line x1="625" y1="115" x2="720" y2="260" data-from="n0_3" data-to="n1_4"/>
<line x1="790" y1="155" x2="950" y2="125" data-from="n0_4" data-to="n0_5"/>
<line x1="790" y1="155" x2="720" y2="260" data-from="n0_4" data-to="n1_4"/>
<line x1="790" y1="155" x2="875" y2="225" data-from="n0_4" data-to="n1_5"/>
<line x1="950" y1="125" x2="875" y2="225" data-from="n0_5" data-to="n1_5"/>
<line x1="950" y1="125" x2="1030" y2="270" data-from="n0_5" data-to="n1_6"/>
<line x1="120" y1="255" x2="260" y2="235" data-from="n1_0" data-to="n1_1"/>
<line x1="260" y1="235" x2="405" y2="270" data-from="n1_1" data-to="n1_2"/>
<line x1="260" y1="235" x2="175" y2="370" data-from="n1_1" data-to="n2_0"/>
<line x1="260" y1="235" x2="335" y2="350" data-from="n1_1" data-to="n2_1"/>
<line x1="405" y1="270" x2="560" y2="230" data-from="n1_2" data-to="n1_3"/>
<line x1="405" y1="270" x2="335" y2="350" data-from="n1_2" data-to="n2_1"/>
<line x1="405" y1="270" x2="490" y2="390" data-from="n1_2" data-to="n2_2"/>
<line x1="560" y1="230" x2="650" y2="340" data-from="n1_3" data-to="n2_3"/>
<line x1="720" y1="260" x2="875" y2="225" data-from="n1_4" data-to="n1_5"/>
<line x1="720" y1="260" x2="650" y2="340" data-from="n1_4" data-to="n2_3"/>
<line x1="875" y1="225" x2="1030" y2="270" data-from="n1_5" data-to="n1_6"/>
<line x1="175" y1="370" x2="115" y2="495" data-from="n2_0" data-to="n3_0"/>
<line x1="175" y1="370" x2="275" y2="470" data-from="n2_0" data-to="n3_1"/>
<line x1="335" y1="350" x2="490" y2="390" data-from="n2_1" data-to="n2_2"/>
<line x1="335" y1="350" x2="275" y2="470" data-from="n2_1" data-to="n3_1"/>
<line x1="490" y1="390" x2="590" y2="465" data-from="n2_2" data-to="n3_3"/>
<line x1="650" y1="340" x2="805" y2="380" data-from="n2_3" data-to="n2_4"/>
<line x1="650" y1="340" x2="590" y2="465" data-from="n2_3" data-to="n3_3"/>
<line x1="805" y1="380" x2="750" y2="505" data-from="n2_4" data-to="n3_4"/>
<line x1="805" y1="380" x2="900" y2="460" data-from="n2_4" data-to="n3_5"/>
<line x1="965" y1="355" x2="1050" y2="500" data-from="n2_5" data-to="n3_6"/>
<line x1="115" y1="495" x2="275" y2="470" data-from="n3_0" data-to="n3_1"/>
<line x1="275" y1="470" x2="430" y2="515" data-from="n3_1" data-to="n3_2"/>
<line x1="275" y1="470" x2="330" y2="590" data-from="n3_1" data-to="n4_1"/>
<line x1="430" y1="515" x2="330" y2="590" data-from="n3_2" data-to="n4_1"/>
<line x1="430" y1="515" x2="500" y2="635" data-from="n3_2" data-to="n4_2"/>
<line x1="590" y1="465" x2="750" y2="505" data-from="n3_3" data-to="n3_4"/>
<line x1="590" y1="465" x2="655" y2="585" data-from="n3_3" data-to="n4_3"/>
<line x1="750" y1="505" x2="900" y2="460" data-from="n3_4" data-to="n3_5"/>
<line x1="750" y1="505" x2="820" y2="625" data-from="n3_4" data-to="n4_4"/>
<line x1="900" y1="460" x2="1050" y2="500" data-from="n3_5" data-to="n3_6"/>
<line x1="1050" y1="500" x2="980" y2="590" data-from="n3_6" data-to="n4_5"/>
<line x1="175" y1="615" x2="330" y2="590" data-from="n4_0" data-to="n4_1"/>
<line x1="175" y1="615" x2="120" y2="735" data-from="n4_0" data-to="n5_0"/>
<line x1="175" y1="615" x2="285" y2="710" data-from="n4_0" data-to="n5_1"/>
<line x1="330" y1="590" x2="285" y2="710" data-from="n4_1" data-to="n5_1"/>
<line x1="500" y1="635" x2="610" y2="700" data-from="n4_2" data-to="n5_3"/>
<line x1="820" y1="625" x2="980" y2="590" data-from="n4_4" data-to="n4_5"/>
<line x1="820" y1="625" x2="775" y2="745" data-from="n4_4" data-to="n5_4"/>
<line x1="820" y1="625" x2="930" y2="705" data-from="n4_4" data-to="n5_5"/>
<line x1="980" y1="590" x2="1040" y2="750" data-from="n4_5" data-to="n5_6"/>
<line x1="120" y1="735" x2="285" y2="710" data-from="n5_0" data-to="n5_1"/>
<line x1="285" y1="710" x2="445" y2="750" data-from="n5_1" data-to="n5_2"/>
<line x1="445" y1="750" x2="610" y2="700" data-from="n5_2" data-to="n5_3"/>
<line x1="610" y1="700" x2="775" y2="745" data-from="n5_3" data-to="n5_4"/>
<line x1="775" y1="745" x2="930" y2="705" data-from="n5_4" data-to="n5_5"/>
<line x1="930" y1="705" x2="1040" y2="750" data-from="n5_5" data-to="n5_6"/>
</g>
<g id="movement-nodes">
<g id="n0_0" class="move-node" data-node-id="n0_0">
      <circle cx="170" cy="145" r="17" fill="#d6f9f7" stroke="#ffffff" stroke-width="4"/>
      <circle cx="166" cy="140" r="5" fill="#ffffff" opacity=".65"/>
    </g>
<g id="n0_1" class="move-node" data-node-id="n0_1">
      <circle cx="315" cy="120" r="17" fill="#d6f9f7" stroke="#ffffff" stroke-width="4"/>
      <circle cx="311" cy="115" r="5" fill="#ffffff" opacity=".65"/>
    </g>
<g id="n0_3" class="move-node" data-node-id="n0_3">
      <circle cx="625" cy="115" r="17" fill="#d6f9f7" stroke="#ffffff" stroke-width="4"/>
      <circle cx="621" cy="110" r="5" fill="#ffffff" opacity=".65"/>
    </g>
<g id="n0_4" class="move-node" data-node-id="n0_4">
      <circle cx="790" cy="155" r="17" fill="#d6f9f7" stroke="#ffffff" stroke-width="4"/>
      <circle cx="786" cy="150" r="5" fill="#ffffff" opacity=".65"/>
    </g>
<g id="n0_5" class="move-node" data-node-id="n0_5">
      <circle cx="950" cy="125" r="17" fill="#d6f9f7" stroke="#ffffff" stroke-width="4"/>
      <circle cx="946" cy="120" r="5" fill="#ffffff" opacity=".65"/>
    </g>
<g id="n1_0" class="move-node" data-node-id="n1_0">
      <circle cx="120" cy="255" r="17" fill="#d6f9f7" stroke="#ffffff" stroke-width="4"/>
      <circle cx="116" cy="250" r="5" fill="#ffffff" opacity=".65"/>
    </g>
<g id="n1_1" class="move-node" data-node-id="n1_1">
      <circle cx="260" cy="235" r="17" fill="#d6f9f7" stroke="#ffffff" stroke-width="4"/>
      <circle cx="256" cy="230" r="5" fill="#ffffff" opacity=".65"/>
    </g>
<g id="n1_2" class="move-node" data-node-id="n1_2">
      <circle cx="405" cy="270" r="17" fill="#d6f9f7" stroke="#ffffff" stroke-width="4"/>
      <circle cx="401" cy="265" r="5" fill="#ffffff" opacity=".65"/>
    </g>
<g id="n1_3" class="move-node" data-node-id="n1_3">
      <circle cx="560" cy="230" r="17" fill="#d6f9f7" stroke="#ffffff" stroke-width="4"/>
      <circle cx="556" cy="225" r="5" fill="#ffffff" opacity=".65"/>
    </g>
<g id="n1_4" class="move-node" data-node-id="n1_4">
      <circle cx="720" cy="260" r="17" fill="#d6f9f7" stroke="#ffffff" stroke-width="4"/>
      <circle cx="716" cy="255" r="5" fill="#ffffff" opacity=".65"/>
    </g>
<g id="n1_5" class="move-node" data-node-id="n1_5">
      <circle cx="875" cy="225" r="17" fill="#d6f9f7" stroke="#ffffff" stroke-width="4"/>
      <circle cx="871" cy="220" r="5" fill="#ffffff" opacity=".65"/>
    </g>
<g id="n1_6" class="move-node" data-node-id="n1_6">
      <circle cx="1030" cy="270" r="17" fill="#d6f9f7" stroke="#ffffff" stroke-width="4"/>
      <circle cx="1026" cy="265" r="5" fill="#ffffff" opacity=".65"/>
    </g>
<g id="n2_0" class="move-node" data-node-id="n2_0">
      <circle cx="175" cy="370" r="17" fill="#d6f9f7" stroke="#ffffff" stroke-width="4"/>
      <circle cx="171" cy="365" r="5" fill="#ffffff" opacity=".65"/>
    </g>
<g id="n2_1" class="move-node" data-node-id="n2_1">
      <circle cx="335" cy="350" r="17" fill="#d6f9f7" stroke="#ffffff" stroke-width="4"/>
      <circle cx="331" cy="345" r="5" fill="#ffffff" opacity=".65"/>
    </g>
<g id="n2_2" class="move-node" data-node-id="n2_2">
      <circle cx="490" cy="390" r="17" fill="#d6f9f7" stroke="#ffffff" stroke-width="4"/>
      <circle cx="486" cy="385" r="5" fill="#ffffff" opacity=".65"/>
    </g>
<g id="n2_3" class="move-node" data-node-id="n2_3">
      <circle cx="650" cy="340" r="17" fill="#d6f9f7" stroke="#ffffff" stroke-width="4"/>
      <circle cx="646" cy="335" r="5" fill="#ffffff" opacity=".65"/>
    </g>
<g id="n2_4" class="move-node" data-node-id="n2_4">
      <circle cx="805" cy="380" r="17" fill="#d6f9f7" stroke="#ffffff" stroke-width="4"/>
      <circle cx="801" cy="375" r="5" fill="#ffffff" opacity=".65"/>
    </g>
<g id="n3_0" class="move-node" data-node-id="n3_0">
      <circle cx="115" cy="495" r="17" fill="#d6f9f7" stroke="#ffffff" stroke-width="4"/>
      <circle cx="111" cy="490" r="5" fill="#ffffff" opacity=".65"/>
    </g>
<g id="n3_1" class="move-node" data-node-id="n3_1">
      <circle cx="275" cy="470" r="17" fill="#d6f9f7" stroke="#ffffff" stroke-width="4"/>
      <circle cx="271" cy="465" r="5" fill="#ffffff" opacity=".65"/>
    </g>
<g id="n3_2" class="move-node" data-node-id="n3_2">
      <circle cx="430" cy="515" r="17" fill="#d6f9f7" stroke="#ffffff" stroke-width="4"/>
      <circle cx="426" cy="510" r="5" fill="#ffffff" opacity=".65"/>
    </g>
<g id="n3_3" class="move-node" data-node-id="n3_3">
      <circle cx="590" cy="465" r="17" fill="#d6f9f7" stroke="#ffffff" stroke-width="4"/>
      <circle cx="586" cy="460" r="5" fill="#ffffff" opacity=".65"/>
    </g>
<g id="n3_4" class="move-node" data-node-id="n3_4">
      <circle cx="750" cy="505" r="17" fill="#d6f9f7" stroke="#ffffff" stroke-width="4"/>
      <circle cx="746" cy="500" r="5" fill="#ffffff" opacity=".65"/>
    </g>
<g id="n3_5" class="move-node" data-node-id="n3_5">
      <circle cx="900" cy="460" r="17" fill="#d6f9f7" stroke="#ffffff" stroke-width="4"/>
      <circle cx="896" cy="455" r="5" fill="#ffffff" opacity=".65"/>
    </g>
<g id="n3_6" class="move-node" data-node-id="n3_6">
      <circle cx="1050" cy="500" r="17" fill="#d6f9f7" stroke="#ffffff" stroke-width="4"/>
      <circle cx="1046" cy="495" r="5" fill="#ffffff" opacity=".65"/>
    </g>
<g id="n4_0" class="move-node" data-node-id="n4_0">
      <circle cx="175" cy="615" r="17" fill="#d6f9f7" stroke="#ffffff" stroke-width="4"/>
      <circle cx="171" cy="610" r="5" fill="#ffffff" opacity=".65"/>
    </g>
<g id="n4_1" class="move-node" data-node-id="n4_1">
      <circle cx="330" cy="590" r="17" fill="#d6f9f7" stroke="#ffffff" stroke-width="4"/>
      <circle cx="326" cy="585" r="5" fill="#ffffff" opacity=".65"/>
    </g>
<g id="n4_2" class="move-node" data-node-id="n4_2">
      <circle cx="500" cy="635" r="17" fill="#d6f9f7" stroke="#ffffff" stroke-width="4"/>
      <circle cx="496" cy="630" r="5" fill="#ffffff" opacity=".65"/>
    </g>
<g id="n4_4" class="move-node" data-node-id="n4_4">
      <circle cx="820" cy="625" r="17" fill="#d6f9f7" stroke="#ffffff" stroke-width="4"/>
      <circle cx="816" cy="620" r="5" fill="#ffffff" opacity=".65"/>
    </g>
<g id="n4_5" class="move-node" data-node-id="n4_5">
      <circle cx="980" cy="590" r="17" fill="#d6f9f7" stroke="#ffffff" stroke-width="4"/>
      <circle cx="976" cy="585" r="5" fill="#ffffff" opacity=".65"/>
    </g>
<g id="n5_0" class="move-node" data-node-id="n5_0">
      <circle cx="120" cy="735" r="17" fill="#d6f9f7" stroke="#ffffff" stroke-width="4"/>
      <circle cx="116" cy="730" r="5" fill="#ffffff" opacity=".65"/>
    </g>
<g id="n5_1" class="move-node" data-node-id="n5_1">
      <circle cx="285" cy="710" r="17" fill="#d6f9f7" stroke="#ffffff" stroke-width="4"/>
      <circle cx="281" cy="705" r="5" fill="#ffffff" opacity=".65"/>
    </g>
<g id="n5_2" class="move-node" data-node-id="n5_2">
      <circle cx="445" cy="750" r="17" fill="#d6f9f7" stroke="#ffffff" stroke-width="4"/>
      <circle cx="441" cy="745" r="5" fill="#ffffff" opacity=".65"/>
    </g>
<g id="n5_3" class="move-node" data-node-id="n5_3">
      <circle cx="610" cy="700" r="17" fill="#d6f9f7" stroke="#ffffff" stroke-width="4"/>
      <circle cx="606" cy="695" r="5" fill="#ffffff" opacity=".65"/>
    </g>
<g id="n5_4" class="move-node" data-node-id="n5_4">
      <circle cx="775" cy="745" r="17" fill="#d6f9f7" stroke="#ffffff" stroke-width="4"/>
      <circle cx="771" cy="740" r="5" fill="#ffffff" opacity=".65"/>
    </g>
<g id="n5_5" class="move-node" data-node-id="n5_5">
      <circle cx="930" cy="705" r="17" fill="#d6f9f7" stroke="#ffffff" stroke-width="4"/>
      <circle cx="926" cy="700" r="5" fill="#ffffff" opacity=".65"/>
    </g>
<g id="n5_6" class="move-node" data-node-id="n5_6">
      <circle cx="1040" cy="750" r="17" fill="#d6f9f7" stroke="#ffffff" stroke-width="4"/>
      <circle cx="1036" cy="745" r="5" fill="#ffffff" opacity=".65"/>
    </g>
</g>
<g id="holes">
<g id="n0_2" class="hole-node" data-node-id="n0_2" data-hole="true">
      <circle cx="470" cy="150" r="56" fill="#ebffff" opacity=".95"/>
      <circle cx="470" cy="150" r="49" fill="#8bc9cf" stroke="#ffffff" stroke-width="5"/>
      <circle cx="470" cy="150" r="39" fill="url(#hole)"/>
      <ellipse cx="462" cy="139" rx="18" ry="8" fill="#ffffff" opacity=".10"/>
    </g>
<g id="n2_5" class="hole-node" data-node-id="n2_5" data-hole="true">
      <circle cx="965" cy="355" r="56" fill="#ebffff" opacity=".95"/>
      <circle cx="965" cy="355" r="49" fill="#8bc9cf" stroke="#ffffff" stroke-width="5"/>
      <circle cx="965" cy="355" r="39" fill="url(#hole)"/>
      <ellipse cx="957" cy="344" rx="18" ry="8" fill="#ffffff" opacity=".10"/>
    </g>
<g id="n4_3" class="hole-node" data-node-id="n4_3" data-hole="true">
      <circle cx="655" cy="585" r="56" fill="#ebffff" opacity=".95"/>
      <circle cx="655" cy="585" r="49" fill="#8bc9cf" stroke="#ffffff" stroke-width="5"/>
      <circle cx="655" cy="585" r="39" fill="url(#hole)"/>
      <ellipse cx="647" cy="574" rx="18" ry="8" fill="#ffffff" opacity=".10"/>
    </g>
</g>
<rect x="48" y="48" width="1104" height="804" rx="38" fill="none" stroke="#f1ffff" stroke-width="3" opacity=".35"/>
</svg>
